<?xml version="1.0" encoding="utf-8"?>
<!-- Generator: Adobe Illustrator 27.5.0, SVG Export Plug-In . SVG Version: 6.00 Build 0)  -->
<svg version="1.1" id="Layer_1" xmlns="http://www.w3.org/2000/svg" xmlns:xlink="http://www.w3.org/1999/xlink" x="0px" y="0px"
	 viewBox="0 0 308.588 363.122" style="enable-background:new 0 0 308.588 363.122;" xml:space="preserve">
<g>
	<g>
		<path style="fill:#FFFFFF;" d="M262.787,68.451c-9.643-10.113-21.996-19.599-36.721-28.198
			c-2.121-1.229-52.495-29.823-103.253-6.111C95.44,46.926,76.291,66.866,64.271,95.108l-0.181,0.428
			c-0.446,1.057-0.879,2.115-1.299,3.173l-0.146,0.369c-1.321,3.357-2.592,6.923-3.768,10.575l-0.079,0.251
			c-3.265,10.169-5.536,19.916-7.736,29.353c-0.64,2.749-1.268,5.441-1.913,8.106l-0.644,2.613
			c-0.263,1.047-0.528,2.077-0.794,3.083l-0.645,2.382c-0.121,0.439-0.244,0.874-0.368,1.305l-0.29,1.004
			c-0.153,0.513-0.307,1.019-0.469,1.538l-0.208,0.68c-0.1,0.317-0.201,0.632-0.304,0.944c-0.083-0.001-0.168-0.002-0.253-0.002
			c-4.427,0-8.638,1.638-12.046,4.724c-1.146,1.039-2.138,2.232-2.948,3.551c-1.903,1.438-3.447,3.289-4.593,5.506
			c-2.966,5.715-2.911,12.398,0.152,18.341c1.086,2.101,2.594,4.073,4.375,5.727c2.915,5.53,8.008,9.442,13.701,10.506
			c4.078,0.758,8.242,0.14,11.799-1.74c1.14-0.028,2.313-0.156,3.49-0.381c4.039-0.756,7.628-2.851,10.227-5.947
			c4.603-0.141,9.171-0.614,13.633-1.411c-0.025,0.165-0.048,0.327-0.068,0.488c-0.338,2.578-0.363,5.164-0.08,7.707
			c-2.132,1.448-4.676,3.256-7.177,5.32c-7.64,6.302-12.154,12.492-15.095,20.694c-2.209,6.174-2.976,11.546-2.484,17.415
			c0.112,1.377,0.401,3.169,2.346,7.057c-0.534,2.336-0.885,4.753-1.045,7.2c-0.598,9.15,2.192,19.351,7.854,28.722
			c2.006,3.32,4.529,5.799,7.512,7.383c3.895,11.076,12.795,19.497,17.846,23.593c7.321,5.937,16.926,10.38,27.095,12.545
			c3.859,2.839,8.139,5.334,12.104,7.052c13.733,5.942,28.819,9.082,43.625,9.082c1.654,0,3.328-0.04,4.972-0.117
			c11.962-0.566,25.037-4.259,36.872-10.407c3.064-0.302,5.841-0.857,7.699-1.257c11.88-2.577,21.199-9.559,27.99-15.353
			c5.541-4.726,9.98-9.234,13.555-13.76c14.707-5.589,24.033-23.193,29.292-37.088c3.347-8.848,3.057-17.275,2.456-23.053
			c3.326-6.956,3.525-16.406,0.509-25.466c-0.276-0.828-0.589-1.669-0.958-2.58c-0.083-0.208-0.172-0.413-0.267-0.626l-0.026-0.063
			c-0.248-0.581-0.502-1.16-0.775-1.734c-0.104-0.221-0.211-0.44-0.318-0.654l-0.092-0.18c-0.255-0.513-0.516-1.021-0.792-1.528
			c-0.142-0.263-0.288-0.525-0.45-0.814c-0.283-0.497-0.574-0.99-0.863-1.466c-0.156-0.255-0.313-0.511-0.475-0.767
			c-0.318-0.502-0.648-0.999-0.958-1.458l-0.078-0.117c-0.128-0.189-0.254-0.378-0.376-0.552c-0.387-0.554-0.785-1.102-1.209-1.668
			l-0.275-0.372c-0.986-1.296-2.063-2.602-3.215-3.903l-0.387-0.43c-0.408-0.453-0.818-0.902-1.249-1.357l-0.542-0.565
			c-0.369-0.384-0.742-0.766-1.126-1.148l-0.442-0.436c0.043-1.683-0.048-3.377-0.27-5.049c-0.111-0.845-0.269-1.711-0.48-2.64
			c-0.051-0.234-0.109-0.466-0.169-0.7l-0.039-0.155c-0.166-0.642-0.347-1.252-0.563-1.909c-0.072-0.227-0.148-0.454-0.244-0.723
			c-0.313-0.866-0.627-1.633-0.959-2.343c-0.101-0.214-0.205-0.425-0.294-0.593c-0.298-0.602-0.602-1.169-0.931-1.735
			c-0.16-0.272-0.323-0.538-0.498-0.815c-0.291-0.462-0.594-0.912-0.885-1.323l-0.061-0.086c-0.169-0.242-0.341-0.481-0.521-0.715
			c-0.486-0.638-0.967-1.221-1.477-1.79c-0.204-0.226-0.416-0.447-0.669-0.704c-0.221-0.23-0.441-0.456-0.668-0.679
			c0.241-3.679,0.024-7.265-0.636-10.503c5.42-5.712,9.24-13.193,11.084-21.729c4.249-13.212,10.43-47.416-22.55-82.213
			l-1.724,1.634l1.682-1.681L262.787,68.451z"/>
		<path style="fill:#F1F1F1;" d="M261.359,67.025c-9.642-10.113-21.994-19.598-36.72-28.198
			c-2.119-1.229-52.495-29.824-103.253-6.111C94.015,45.5,74.865,65.439,62.845,93.682l-0.181,0.428
			c-0.446,1.057-0.879,2.114-1.298,3.173l-0.147,0.369c-1.321,3.357-2.591,6.923-3.768,10.575l-0.08,0.251
			c-3.264,10.168-5.535,19.915-7.734,29.353c-0.641,2.748-1.269,5.44-1.914,8.106l-0.645,2.613
			c-0.262,1.047-0.528,2.076-0.794,3.083l-0.644,2.381c-0.123,0.439-0.245,0.874-0.369,1.306l-0.291,1.004
			c-0.152,0.513-0.306,1.019-0.467,1.538l-0.208,0.68c-0.1,0.317-0.202,0.633-0.305,0.944c-0.082-0.001-0.168-0.001-0.252-0.001
			c-4.427,0-8.64,1.638-12.046,4.724c-1.148,1.039-2.139,2.232-2.949,3.552c-1.902,1.438-3.446,3.288-4.594,5.505
			c-2.964,5.715-2.909,12.399,0.153,18.341c1.086,2.102,2.593,4.073,4.374,5.727c2.917,5.53,8.01,9.442,13.702,10.505
			c4.079,0.759,8.243,0.141,11.799-1.739c1.14-0.029,2.312-0.157,3.49-0.381c4.039-0.756,7.628-2.851,10.227-5.947
			c4.602-0.141,9.17-0.615,13.632-1.411c-0.024,0.164-0.047,0.327-0.068,0.488c-0.332,2.578-0.364,5.163-0.08,7.707
			c-2.131,1.448-4.675,3.255-7.176,5.32c-7.641,6.303-12.155,12.492-15.096,20.695c-2.21,6.174-2.975,11.546-2.484,17.415
			c0.113,1.377,0.402,3.168,2.346,7.056c-0.533,2.336-0.884,4.754-1.044,7.2c-0.597,9.151,2.191,19.351,7.854,28.722
			c2.005,3.32,4.528,5.799,7.511,7.383c3.896,11.075,12.795,19.498,17.846,23.593c7.322,5.936,16.926,10.381,27.095,12.546
			c3.859,2.839,8.139,5.334,12.103,7.052c13.733,5.941,28.819,9.082,43.624,9.082c1.655,0,3.329-0.04,4.973-0.118
			c11.963-0.565,25.038-4.258,36.871-10.406c3.067-0.302,5.842-0.857,7.701-1.257c11.879-2.578,21.2-9.559,27.99-15.353
			c5.54-4.726,9.98-9.234,13.555-13.76c14.706-5.589,24.032-23.193,29.293-37.089c3.344-8.848,3.056-17.275,2.455-23.053
			c3.326-6.956,3.525-16.406,0.508-25.466c-0.276-0.828-0.588-1.669-0.957-2.58c-0.084-0.208-0.173-0.413-0.267-0.626l-0.026-0.064
			c-0.248-0.581-0.502-1.16-0.775-1.734c-0.105-0.221-0.213-0.44-0.32-0.655l-0.089-0.178c-0.257-0.513-0.518-1.021-0.792-1.529
			c-0.143-0.262-0.289-0.524-0.453-0.813c-0.281-0.497-0.572-0.99-0.863-1.466c-0.155-0.255-0.311-0.512-0.474-0.767
			c-0.317-0.502-0.647-0.999-0.958-1.458l-0.078-0.117c-0.127-0.189-0.254-0.378-0.377-0.552c-0.387-0.553-0.785-1.102-1.207-1.668
			l-0.277-0.372c-0.984-1.296-2.061-2.603-3.213-3.903l-0.389-0.43c-0.406-0.453-0.818-0.902-1.248-1.357l-0.542-0.565
			c-0.369-0.384-0.742-0.765-1.126-1.148l-0.441-0.436c0.042-1.683-0.048-3.377-0.271-5.05c-0.112-0.845-0.271-1.71-0.48-2.639
			c-0.052-0.234-0.109-0.466-0.169-0.7l-0.04-0.155c-0.166-0.642-0.349-1.251-0.562-1.909c-0.074-0.227-0.148-0.454-0.244-0.723
			c-0.311-0.867-0.629-1.633-0.961-2.343c-0.1-0.214-0.205-0.423-0.293-0.592c-0.306-0.599-0.602-1.17-0.932-1.736
			c-0.157-0.272-0.322-0.538-0.497-0.815c-0.291-0.462-0.593-0.912-0.885-1.323l-0.061-0.086c-0.17-0.242-0.342-0.482-0.521-0.715
			c-0.485-0.638-0.966-1.223-1.475-1.791c-0.204-0.227-0.418-0.445-0.67-0.704c-0.221-0.229-0.441-0.456-0.668-0.679
			c0.242-3.678,0.025-7.264-0.636-10.503c5.42-5.712,9.241-13.193,11.085-21.729c4.248-13.213,10.43-47.416-22.55-82.213
			l-1.724,1.634l1.682-1.681L261.359,67.025z"/>
		<path style="fill:#E2E2E2;" d="M259.934,65.599C250.292,55.486,237.939,46,223.213,37.401
			c-2.119-1.229-52.494-29.824-103.253-6.111C92.588,44.074,73.439,64.013,61.418,92.256l-0.18,0.428
			c-0.446,1.056-0.879,2.114-1.298,3.172l-0.147,0.369c-1.321,3.357-2.591,6.923-3.768,10.575l-0.08,0.252
			c-3.265,10.168-5.535,19.915-7.735,29.353c-0.64,2.747-1.267,5.44-1.913,8.106l-0.645,2.613c-0.263,1.046-0.528,2.076-0.794,3.083
			l-0.644,2.38c-0.123,0.44-0.245,0.875-0.369,1.306l-0.291,1.004c-0.152,0.513-0.306,1.018-0.468,1.538l-0.207,0.681
			c-0.101,0.317-0.202,0.633-0.305,0.943c-0.083-0.001-0.168-0.001-0.252-0.001c-4.427,0-8.64,1.638-12.046,4.724
			c-1.147,1.039-2.139,2.232-2.949,3.551c-1.903,1.439-3.447,3.289-4.594,5.506c-2.965,5.715-2.909,12.399,0.153,18.341
			c1.085,2.101,2.593,4.072,4.374,5.727c2.917,5.529,8.009,9.442,13.702,10.504c4.079,0.759,8.243,0.14,11.799-1.739
			c1.14-0.029,2.312-0.156,3.49-0.381c4.039-0.756,7.628-2.852,10.227-5.947c4.603-0.142,9.171-0.615,13.633-1.411
			c-0.025,0.164-0.048,0.327-0.068,0.488c-0.333,2.578-0.364,5.164-0.08,7.707c-2.131,1.448-4.675,3.255-7.176,5.32
			c-7.642,6.303-12.155,12.492-15.096,20.695c-2.21,6.174-2.976,11.546-2.484,17.414c0.112,1.378,0.401,3.17,2.346,7.057
			c-0.534,2.336-0.885,4.754-1.044,7.2c-0.598,9.151,2.191,19.351,7.854,28.722c2.005,3.319,4.528,5.799,7.511,7.382
			c3.896,11.076,12.794,19.498,17.846,23.593c7.322,5.936,16.926,10.381,27.095,12.546c3.859,2.84,8.139,5.335,12.103,7.052
			c13.733,5.941,28.819,9.082,43.625,9.082c1.655,0,3.329-0.039,4.973-0.118c11.963-0.566,25.038-4.258,36.871-10.406
			c3.066-0.302,5.842-0.857,7.7-1.257c11.88-2.578,21.2-9.559,27.991-15.353c5.54-4.726,9.98-9.234,13.554-13.761
			c14.706-5.588,24.033-23.192,29.292-37.088c3.346-8.848,3.057-17.274,2.455-23.052c3.327-6.956,3.527-16.407,0.51-25.467
			c-0.277-0.827-0.588-1.669-0.957-2.58c-0.084-0.208-0.174-0.413-0.268-0.625l-0.027-0.064c-0.246-0.582-0.501-1.161-0.773-1.734
			c-0.105-0.221-0.213-0.44-0.32-0.655l-0.09-0.179c-0.256-0.513-0.517-1.021-0.793-1.529c-0.141-0.262-0.288-0.524-0.451-0.813
			c-0.282-0.497-0.572-0.991-0.863-1.467c-0.155-0.255-0.311-0.511-0.474-0.767c-0.318-0.502-0.647-1-0.958-1.458l-0.078-0.117
			c-0.127-0.189-0.256-0.378-0.377-0.552c-0.387-0.553-0.785-1.102-1.207-1.669l-0.277-0.372c-0.986-1.296-2.061-2.603-3.213-3.903
			l-0.389-0.43c-0.406-0.453-0.818-0.902-1.248-1.357l-0.542-0.564c-0.37-0.384-0.742-0.765-1.126-1.148l-0.441-0.436
			c0.042-1.683-0.048-3.377-0.271-5.049c-0.112-0.846-0.272-1.711-0.48-2.64c-0.052-0.234-0.109-0.466-0.169-0.7l-0.041-0.155
			c-0.165-0.641-0.348-1.252-0.561-1.909c-0.074-0.227-0.148-0.454-0.244-0.724c-0.311-0.866-0.629-1.633-0.961-2.342
			c-0.1-0.215-0.207-0.423-0.293-0.593c-0.307-0.599-0.602-1.17-0.932-1.736c-0.158-0.272-0.322-0.538-0.497-0.815
			c-0.291-0.461-0.593-0.912-0.885-1.323l-0.061-0.086c-0.17-0.242-0.342-0.482-0.521-0.715c-0.486-0.638-0.967-1.223-1.477-1.792
			c-0.204-0.227-0.418-0.444-0.669-0.703c-0.222-0.229-0.441-0.457-0.668-0.679c0.242-3.679,0.025-7.264-0.636-10.503
			c5.42-5.713,9.24-13.194,11.085-21.729c4.248-13.213,10.43-47.416-22.55-82.213l-1.724,1.634l1.681-1.681L259.934,65.599z"/>
		<path style="fill:#D4D4D4;" d="M258.508,64.173c-9.642-10.113-21.994-19.599-36.721-28.198
			c-2.119-1.229-52.494-29.823-103.253-6.111C91.162,42.647,72.014,62.587,59.992,90.83l-0.18,0.428
			c-0.446,1.056-0.88,2.115-1.298,3.172l-0.147,0.369c-1.321,3.356-2.592,6.923-3.768,10.575l-0.08,0.252
			c-3.265,10.169-5.535,19.915-7.735,29.352c-0.64,2.749-1.269,5.441-1.914,8.107l-0.644,2.614
			c-0.263,1.046-0.529,2.076-0.794,3.083l-0.644,2.381c-0.123,0.439-0.245,0.874-0.37,1.305l-0.29,1.004
			c-0.152,0.513-0.307,1.018-0.468,1.538l-0.208,0.68c-0.1,0.317-0.202,0.633-0.304,0.944c-0.084-0.001-0.168-0.001-0.253-0.001
			c-4.426,0-8.639,1.638-12.045,4.724c-1.148,1.038-2.139,2.231-2.949,3.551c-1.903,1.438-3.447,3.289-4.594,5.506
			c-2.965,5.715-2.909,12.398,0.153,18.341c1.085,2.101,2.593,4.073,4.374,5.727c2.917,5.53,8.008,9.442,13.702,10.505
			c4.079,0.758,8.243,0.14,11.799-1.74c1.139-0.028,2.312-0.156,3.49-0.381c4.039-0.756,7.628-2.852,10.226-5.947
			c4.604-0.142,9.171-0.615,13.634-1.411c-0.025,0.164-0.049,0.327-0.069,0.487c-0.332,2.578-0.363,5.164-0.079,7.708
			c-2.131,1.447-4.675,3.255-7.177,5.32c-7.641,6.303-12.154,12.492-15.095,20.694c-2.21,6.174-2.976,11.547-2.484,17.415
			c0.112,1.377,0.401,3.169,2.346,7.057c-0.534,2.335-0.885,4.753-1.044,7.2c-0.598,9.15,2.191,19.351,7.854,28.722
			c2.006,3.32,4.529,5.799,7.512,7.383c3.896,11.076,12.794,19.497,17.846,23.593c7.321,5.937,16.926,10.381,27.095,12.546
			c3.859,2.84,8.139,5.334,12.103,7.052c13.733,5.942,28.819,9.082,43.625,9.082c1.655,0,3.329-0.04,4.972-0.117
			c11.964-0.566,25.039-4.258,36.872-10.406c3.066-0.303,5.842-0.857,7.7-1.257c11.88-2.578,21.2-9.559,27.991-15.353
			c5.54-4.726,9.981-9.234,13.554-13.76c14.706-5.588,24.033-23.193,29.292-37.088c3.346-8.848,3.057-17.275,2.455-23.053
			c3.326-6.956,3.527-16.407,0.51-25.466c-0.277-0.828-0.588-1.669-0.957-2.58c-0.084-0.207-0.174-0.412-0.267-0.625l-0.027-0.064
			c-0.246-0.581-0.501-1.161-0.773-1.734c-0.105-0.221-0.213-0.44-0.32-0.654l-0.09-0.179c-0.256-0.513-0.518-1.021-0.793-1.529
			c-0.142-0.263-0.288-0.524-0.451-0.813c-0.282-0.497-0.572-0.991-0.863-1.467c-0.155-0.255-0.311-0.511-0.474-0.767
			c-0.318-0.503-0.647-1-0.958-1.459l-0.078-0.117c-0.127-0.189-0.256-0.378-0.377-0.552c-0.388-0.553-0.785-1.102-1.208-1.668
			l-0.276-0.372c-0.986-1.296-2.061-2.603-3.213-3.903l-0.389-0.43c-0.407-0.453-0.818-0.902-1.248-1.357l-0.542-0.564
			c-0.37-0.384-0.742-0.766-1.126-1.148l-0.442-0.437c0.043-1.683-0.047-3.377-0.27-5.049c-0.112-0.845-0.272-1.711-0.481-2.64
			c-0.053-0.234-0.109-0.465-0.168-0.699l-0.041-0.156c-0.165-0.642-0.348-1.252-0.561-1.909c-0.073-0.227-0.148-0.454-0.243-0.723
			c-0.311-0.866-0.629-1.633-0.961-2.342c-0.1-0.215-0.207-0.424-0.293-0.593c-0.307-0.598-0.602-1.169-0.932-1.735
			c-0.158-0.272-0.322-0.538-0.497-0.816c-0.292-0.462-0.593-0.912-0.886-1.323l-0.06-0.086c-0.17-0.241-0.342-0.482-0.521-0.715
			c-0.486-0.638-0.967-1.223-1.478-1.791c-0.203-0.227-0.417-0.445-0.668-0.704c-0.223-0.227-0.441-0.456-0.668-0.679
			c0.242-3.679,0.024-7.265-0.636-10.503c5.42-5.712,9.24-13.193,11.085-21.729c4.248-13.213,10.43-47.416-22.55-82.213
			l-1.724,1.634l1.681-1.681L258.508,64.173z"/>
		<path style="fill:#C5C5C5;" d="M257.082,62.746c-9.642-10.113-21.994-19.599-36.722-28.197
			c-2.118-1.229-52.493-29.824-103.253-6.112C89.735,41.221,70.587,61.161,58.566,89.403l-0.18,0.428
			c-0.446,1.056-0.88,2.115-1.298,3.172l-0.148,0.37c-1.32,3.356-2.591,6.923-3.767,10.574l-0.08,0.251
			c-3.265,10.169-5.535,19.916-7.735,29.353c-0.64,2.749-1.269,5.441-1.914,8.106l-0.644,2.614
			c-0.263,1.046-0.529,2.076-0.794,3.083l-0.646,2.381c-0.121,0.439-0.244,0.874-0.368,1.306l-0.29,1.004
			c-0.152,0.513-0.307,1.019-0.468,1.538l-0.208,0.68c-0.1,0.317-0.202,0.633-0.304,0.945c-0.084-0.001-0.168-0.002-0.253-0.002
			c-4.427,0-8.639,1.638-12.045,4.724c-1.149,1.039-2.139,2.232-2.949,3.551c-1.903,1.438-3.447,3.288-4.594,5.505
			c-2.965,5.715-2.909,12.399,0.152,18.341c1.086,2.102,2.594,4.073,4.375,5.727c2.917,5.53,8.008,9.442,13.701,10.506
			c4.08,0.758,8.243,0.14,11.799-1.74c1.14-0.028,2.312-0.157,3.49-0.381c4.04-0.756,7.627-2.852,10.227-5.948
			c4.603-0.141,9.171-0.614,13.634-1.41c-0.025,0.164-0.049,0.327-0.07,0.487c-0.332,2.579-0.363,5.163-0.078,7.707
			c-2.132,1.448-4.675,3.256-7.177,5.32c-7.641,6.303-12.154,12.491-15.095,20.695c-2.21,6.174-2.977,11.546-2.484,17.415
			c0.112,1.377,0.401,3.169,2.345,7.056c-0.533,2.335-0.884,4.753-1.043,7.2c-0.598,9.151,2.191,19.352,7.854,28.722
			c2.005,3.32,4.528,5.799,7.512,7.382c3.895,11.077,12.793,19.498,17.846,23.594c7.321,5.936,16.926,10.381,27.094,12.546
			c3.859,2.839,8.14,5.334,12.104,7.052c13.733,5.941,28.818,9.082,43.625,9.082c1.655,0,3.329-0.039,4.971-0.117
			c11.965-0.566,25.04-4.258,36.872-10.406c3.067-0.303,5.843-0.857,7.7-1.257c11.881-2.577,21.201-9.559,27.992-15.353
			c5.54-4.726,9.98-9.234,13.554-13.76c14.706-5.588,24.032-23.193,29.292-37.088c3.346-8.848,3.057-17.275,2.455-23.053
			c3.326-6.956,3.527-16.406,0.508-25.466c-0.275-0.828-0.588-1.669-0.955-2.58c-0.084-0.208-0.174-0.413-0.268-0.626l-0.027-0.063
			c-0.247-0.582-0.501-1.161-0.773-1.734c-0.105-0.221-0.213-0.441-0.321-0.655l-0.089-0.179c-0.256-0.513-0.517-1.021-0.793-1.529
			c-0.142-0.262-0.289-0.524-0.451-0.813c-0.283-0.497-0.572-0.99-0.863-1.466c-0.156-0.255-0.313-0.511-0.474-0.767
			c-0.319-0.502-0.648-1-0.958-1.459l-0.08-0.117c-0.125-0.189-0.254-0.377-0.376-0.552c-0.387-0.553-0.784-1.102-1.207-1.668
			l-0.276-0.372c-0.986-1.296-2.063-2.602-3.213-3.903l-0.39-0.43c-0.406-0.453-0.818-0.902-1.249-1.357l-0.541-0.565
			c-0.369-0.384-0.742-0.765-1.125-1.147l-0.442-0.437c0.043-1.683-0.048-3.377-0.27-5.049c-0.112-0.845-0.272-1.71-0.48-2.64
			c-0.053-0.234-0.109-0.466-0.168-0.699l-0.041-0.156c-0.165-0.642-0.35-1.251-0.561-1.909c-0.074-0.227-0.147-0.454-0.244-0.723
			c-0.31-0.867-0.628-1.633-0.961-2.343c-0.099-0.215-0.206-0.424-0.293-0.593c-0.307-0.599-0.602-1.17-0.931-1.736
			c-0.158-0.271-0.324-0.538-0.498-0.815c-0.291-0.462-0.592-0.912-0.885-1.323l-0.062-0.086c-0.169-0.241-0.341-0.482-0.52-0.715
			c-0.486-0.638-0.967-1.222-1.477-1.791c-0.203-0.227-0.417-0.445-0.67-0.704c-0.221-0.227-0.44-0.456-0.666-0.679
			c0.242-3.678,0.024-7.264-0.636-10.503c5.419-5.712,9.24-13.193,11.084-21.729c4.249-13.213,10.43-47.416-22.55-82.214
			l-1.723,1.634l1.681-1.68L257.082,62.746z"/>
		<path style="fill:#B7B7B7;" d="M255.655,61.32c-9.641-10.112-21.995-19.598-36.721-28.197c-2.12-1.23-52.495-29.824-103.253-6.111
			C88.309,39.795,69.16,59.734,57.141,87.977l-0.181,0.428c-0.446,1.056-0.88,2.115-1.298,3.172l-0.148,0.37
			c-1.32,3.357-2.592,6.923-3.767,10.575l-0.08,0.251c-3.265,10.169-5.536,19.916-7.735,29.353c-0.641,2.747-1.268,5.44-1.913,8.106
			l-0.645,2.613c-0.263,1.046-0.528,2.076-0.794,3.083l-0.645,2.381c-0.122,0.439-0.244,0.874-0.368,1.306l-0.291,1.003
			c-0.152,0.513-0.307,1.019-0.468,1.539l-0.208,0.68c-0.1,0.317-0.202,0.633-0.304,0.944c-0.084-0.001-0.168-0.002-0.253-0.002
			c-4.426,0-8.639,1.638-12.046,4.724c-1.147,1.039-2.138,2.232-2.948,3.551c-1.903,1.438-3.447,3.289-4.594,5.506
			c-2.965,5.715-2.909,12.399,0.153,18.341c1.086,2.102,2.593,4.073,4.374,5.727c2.917,5.529,8.008,9.442,13.702,10.505
			c4.079,0.758,8.242,0.14,11.799-1.74c1.14-0.029,2.311-0.157,3.49-0.381c4.04-0.756,7.627-2.852,10.226-5.947
			c4.602-0.142,9.172-0.614,13.634-1.411c-0.025,0.165-0.048,0.327-0.069,0.488c-0.332,2.578-0.363,5.163-0.079,7.707
			c-2.132,1.448-4.676,3.255-7.177,5.32c-7.641,6.302-12.155,12.491-15.095,20.694c-2.209,6.174-2.977,11.546-2.483,17.414
			c0.111,1.377,0.4,3.169,2.345,7.056c-0.534,2.335-0.885,4.754-1.044,7.2c-0.598,9.151,2.191,19.351,7.854,28.722
			c2.006,3.32,4.529,5.799,7.511,7.383c3.896,11.076,12.795,19.498,17.847,23.593c7.321,5.936,16.925,10.381,27.095,12.546
			c3.859,2.839,8.139,5.334,12.103,7.052c13.733,5.941,28.819,9.082,43.625,9.082c1.655,0,3.329-0.04,4.972-0.117
			c11.963-0.566,25.039-4.259,36.873-10.407c3.064-0.302,5.841-0.857,7.699-1.257c11.879-2.578,21.199-9.559,27.99-15.353
			c5.541-4.726,9.98-9.234,13.555-13.76c14.706-5.589,24.033-23.193,29.292-37.088c3.346-8.848,3.056-17.275,2.455-23.053
			c3.327-6.956,3.526-16.406,0.509-25.466c-0.276-0.827-0.588-1.669-0.956-2.58c-0.083-0.207-0.173-0.412-0.267-0.625l-0.028-0.063
			c-0.247-0.582-0.501-1.161-0.774-1.734c-0.105-0.221-0.212-0.44-0.32-0.655l-0.09-0.179c-0.256-0.512-0.516-1.021-0.791-1.529
			c-0.142-0.262-0.289-0.524-0.451-0.813c-0.283-0.497-0.574-0.99-0.863-1.466c-0.156-0.255-0.313-0.511-0.475-0.767
			c-0.317-0.502-0.648-1-0.957-1.458l-0.08-0.118c-0.127-0.189-0.254-0.377-0.375-0.552c-0.389-0.553-0.785-1.102-1.208-1.668
			l-0.276-0.372c-0.987-1.296-2.063-2.602-3.214-3.903l-0.389-0.43c-0.407-0.453-0.817-0.902-1.249-1.357l-0.541-0.564
			c-0.369-0.384-0.742-0.765-1.126-1.148l-0.441-0.437c0.042-1.683-0.048-3.377-0.271-5.05c-0.111-0.845-0.271-1.71-0.48-2.639
			c-0.053-0.234-0.11-0.466-0.17-0.7l-0.04-0.155c-0.165-0.642-0.349-1.251-0.561-1.909c-0.073-0.227-0.147-0.454-0.244-0.723
			c-0.311-0.867-0.628-1.633-0.96-2.342c-0.1-0.215-0.206-0.423-0.294-0.593c-0.306-0.599-0.602-1.17-0.93-1.736
			c-0.16-0.271-0.324-0.537-0.498-0.814c-0.291-0.462-0.594-0.912-0.885-1.323l-0.063-0.086c-0.169-0.242-0.34-0.482-0.52-0.715
			c-0.486-0.638-0.967-1.222-1.478-1.791c-0.203-0.227-0.417-0.445-0.668-0.704c-0.223-0.228-0.442-0.456-0.668-0.679
			c0.241-3.679,0.024-7.264-0.636-10.503c5.42-5.712,9.24-13.193,11.084-21.73c4.249-13.212,10.43-47.415-22.549-82.213
			l-1.725,1.634l1.682-1.681L255.655,61.32z"/>
		<path style="fill:#A8A8A8;" d="M254.23,59.894c-9.642-10.112-21.995-19.598-36.721-28.197
			c-2.12-1.229-52.495-29.824-103.253-6.111C86.883,38.369,67.734,58.309,55.714,86.551l-0.18,0.428
			c-0.446,1.056-0.88,2.114-1.298,3.172l-0.148,0.369c-1.32,3.357-2.591,6.923-3.768,10.575l-0.079,0.252
			c-3.265,10.168-5.536,19.915-7.735,29.353c-0.641,2.748-1.268,5.44-1.914,8.106l-0.644,2.614
			c-0.263,1.046-0.529,2.076-0.795,3.083l-0.644,2.381c-0.122,0.439-0.245,0.875-0.369,1.306l-0.29,1.003
			c-0.152,0.514-0.307,1.019-0.468,1.539l-0.208,0.68c-0.101,0.317-0.202,0.632-0.304,0.943c-0.084-0.001-0.168-0.001-0.253-0.001
			c-4.426,0-8.639,1.638-12.046,4.724c-1.147,1.038-2.139,2.231-2.949,3.551c-1.902,1.438-3.446,3.288-4.593,5.505
			c-2.966,5.715-2.909,12.399,0.153,18.341c1.085,2.101,2.593,4.073,4.374,5.727c2.917,5.529,8.008,9.442,13.701,10.505
			c4.079,0.758,8.243,0.14,11.799-1.74c1.14-0.029,2.313-0.157,3.49-0.381c4.04-0.757,7.628-2.852,10.227-5.947
			c4.603-0.142,9.171-0.615,13.633-1.411c-0.024,0.164-0.048,0.327-0.068,0.488c-0.332,2.579-0.363,5.163-0.08,7.707
			c-2.131,1.448-4.675,3.256-7.176,5.32c-7.641,6.303-12.155,12.492-15.095,20.694c-2.21,6.174-2.977,11.547-2.484,17.415
			c0.111,1.377,0.401,3.169,2.345,7.056c-0.533,2.336-0.884,4.753-1.044,7.2c-0.597,9.151,2.191,19.351,7.854,28.722
			c2.005,3.32,4.528,5.799,7.511,7.383c3.896,11.076,12.795,19.497,17.846,23.594c7.322,5.936,16.926,10.381,27.095,12.545
			c3.859,2.84,8.14,5.335,12.104,7.052c13.733,5.942,28.819,9.082,43.625,9.082c1.655,0,3.329-0.039,4.972-0.117
			c11.963-0.566,25.039-4.258,36.872-10.406c3.065-0.303,5.842-0.857,7.7-1.257c11.879-2.578,21.199-9.559,27.99-15.353
			c5.541-4.725,9.98-9.233,13.555-13.76c14.706-5.589,24.033-23.193,29.292-37.089c3.345-8.848,3.056-17.274,2.454-23.052
			c3.328-6.956,3.527-16.407,0.51-25.467c-0.276-0.827-0.588-1.669-0.957-2.58c-0.084-0.208-0.173-0.412-0.267-0.624l-0.028-0.064
			c-0.246-0.582-0.5-1.16-0.773-1.734c-0.104-0.221-0.212-0.439-0.32-0.655l-0.09-0.179c-0.256-0.512-0.516-1.021-0.792-1.528
			c-0.142-0.263-0.288-0.525-0.452-0.813c-0.281-0.497-0.572-0.991-0.862-1.467c-0.155-0.256-0.311-0.511-0.474-0.768
			c-0.318-0.502-0.648-0.999-0.959-1.458l-0.078-0.118c-0.127-0.189-0.254-0.378-0.377-0.551c-0.387-0.553-0.784-1.102-1.207-1.668
			l-0.277-0.372c-0.985-1.297-2.06-2.603-3.212-3.903l-0.389-0.43c-0.407-0.453-0.818-0.902-1.249-1.357l-0.542-0.564
			c-0.369-0.385-0.742-0.766-1.125-1.148l-0.442-0.437c0.043-1.683-0.047-3.376-0.27-5.049c-0.113-0.845-0.272-1.711-0.481-2.639
			c-0.053-0.234-0.109-0.466-0.169-0.7l-0.041-0.156c-0.164-0.641-0.348-1.251-0.561-1.909c-0.073-0.227-0.147-0.454-0.244-0.723
			c-0.31-0.866-0.628-1.633-0.96-2.342c-0.1-0.214-0.206-0.423-0.294-0.593c-0.306-0.599-0.602-1.17-0.931-1.736
			c-0.159-0.272-0.323-0.537-0.497-0.815c-0.292-0.462-0.594-0.912-0.886-1.323l-0.062-0.087c-0.17-0.242-0.341-0.482-0.519-0.715
			c-0.486-0.639-0.967-1.223-1.478-1.792c-0.203-0.227-0.417-0.444-0.669-0.704c-0.222-0.228-0.441-0.456-0.668-0.679
			c0.242-3.679,0.025-7.264-0.635-10.503c5.42-5.713,9.24-13.193,11.084-21.729c4.249-13.213,10.43-47.416-22.549-82.213
			l-1.725,1.633l1.682-1.68L254.23,59.894z"/>
		<path style="fill:#9A9A9A;" d="M252.804,58.468c-9.642-10.112-21.995-19.599-36.721-28.197
			c-2.12-1.229-52.495-29.824-103.253-6.111C85.457,36.943,66.309,56.882,54.288,85.125l-0.181,0.428
			c-0.445,1.056-0.879,2.115-1.298,3.172l-0.147,0.369c-1.32,3.357-2.591,6.923-3.768,10.574l-0.079,0.252
			c-3.265,10.168-5.536,19.915-7.735,29.352c-0.641,2.749-1.269,5.441-1.914,8.107l-0.645,2.614
			c-0.262,1.046-0.528,2.076-0.794,3.083l-0.644,2.381c-0.123,0.439-0.245,0.874-0.369,1.306l-0.291,1.004
			c-0.151,0.513-0.306,1.018-0.467,1.538l-0.208,0.68c-0.101,0.317-0.202,0.633-0.305,0.944c-0.083-0.001-0.168-0.002-0.252-0.002
			c-4.427,0-8.64,1.639-12.046,4.725c-1.147,1.038-2.139,2.231-2.949,3.551c-1.902,1.438-3.446,3.289-4.593,5.505
			c-2.966,5.715-2.91,12.399,0.152,18.341c1.086,2.102,2.594,4.073,4.375,5.727c2.916,5.53,8.008,9.443,13.701,10.505
			c4.079,0.758,8.243,0.14,11.799-1.739c1.14-0.029,2.313-0.157,3.49-0.382c4.04-0.756,7.628-2.851,10.226-5.947
			c4.603-0.141,9.171-0.614,13.633-1.41c-0.024,0.164-0.048,0.326-0.068,0.487c-0.332,2.578-0.364,5.163-0.08,7.707
			c-2.131,1.448-4.675,3.256-7.176,5.32c-7.641,6.303-12.155,12.491-15.095,20.694c-2.21,6.174-2.977,11.547-2.484,17.415
			c0.111,1.377,0.401,3.168,2.345,7.056c-0.533,2.336-0.884,4.754-1.044,7.2c-0.598,9.151,2.191,19.352,7.854,28.722
			c2.005,3.32,4.528,5.8,7.511,7.383c3.896,11.076,12.795,19.497,17.846,23.593c7.322,5.937,16.926,10.381,27.095,12.545
			c3.859,2.839,8.14,5.334,12.104,7.052c13.733,5.942,28.819,9.082,43.625,9.082c1.655,0,3.328-0.039,4.972-0.117
			c11.963-0.566,25.038-4.258,36.871-10.406c3.066-0.303,5.843-0.857,7.701-1.257c11.879-2.578,21.199-9.559,27.99-15.353
			c5.541-4.726,9.98-9.234,13.555-13.76c14.706-5.588,24.032-23.193,29.292-37.088c3.345-8.848,3.056-17.275,2.454-23.053
			c3.327-6.956,3.527-16.407,0.51-25.466c-0.276-0.828-0.588-1.669-0.957-2.58c-0.084-0.208-0.173-0.413-0.267-0.626l-0.028-0.064
			c-0.246-0.581-0.5-1.161-0.773-1.734c-0.104-0.221-0.213-0.439-0.32-0.654l-0.09-0.179c-0.256-0.513-0.517-1.021-0.792-1.529
			c-0.142-0.263-0.288-0.525-0.452-0.814c-0.281-0.497-0.572-0.99-0.862-1.466c-0.156-0.256-0.311-0.512-0.474-0.768
			c-0.318-0.503-0.648-0.999-0.959-1.458l-0.078-0.117c-0.127-0.189-0.255-0.378-0.377-0.552c-0.387-0.553-0.784-1.101-1.207-1.668
			l-0.277-0.372c-0.985-1.296-2.06-2.602-3.212-3.903l-0.39-0.43c-0.406-0.453-0.817-0.901-1.248-1.357l-0.542-0.565
			c-0.369-0.384-0.742-0.765-1.125-1.148l-0.442-0.436c0.043-1.683-0.048-3.377-0.271-5.05c-0.112-0.845-0.271-1.711-0.48-2.64
			c-0.053-0.234-0.109-0.466-0.169-0.699l-0.041-0.156c-0.165-0.641-0.348-1.251-0.56-1.909c-0.074-0.226-0.148-0.454-0.244-0.723
			c-0.311-0.867-0.629-1.633-0.961-2.342c-0.1-0.215-0.206-0.424-0.293-0.593c-0.307-0.599-0.602-1.17-0.932-1.736
			c-0.158-0.272-0.322-0.538-0.496-0.815c-0.292-0.461-0.594-0.912-0.886-1.322l-0.061-0.086c-0.17-0.242-0.341-0.482-0.52-0.715
			c-0.486-0.638-0.967-1.223-1.478-1.792c-0.204-0.226-0.417-0.444-0.669-0.704c-0.222-0.227-0.441-0.456-0.668-0.679
			c0.242-3.678,0.025-7.264-0.636-10.503c5.42-5.712,9.24-13.193,11.085-21.729c4.249-13.213,10.43-47.416-22.55-82.214
			l-1.724,1.634l1.682-1.681L252.804,58.468z"/>
		<path style="fill:#8B8B8B;" d="M251.377,57.042c-9.642-10.113-21.994-19.599-36.72-28.197
			c-2.121-1.229-52.495-29.824-103.253-6.112C84.031,35.517,64.883,55.457,52.862,83.698l-0.181,0.428
			c-0.446,1.057-0.879,2.115-1.298,3.173l-0.147,0.37c-1.321,3.356-2.591,6.922-3.768,10.574l-0.08,0.251
			c-3.264,10.168-5.535,19.916-7.736,29.353c-0.639,2.749-1.267,5.441-1.912,8.106l-0.645,2.613
			c-0.262,1.047-0.528,2.076-0.794,3.083l-0.644,2.381c-0.123,0.439-0.245,0.874-0.369,1.306l-0.292,1.003
			c-0.151,0.514-0.305,1.019-0.466,1.539l-0.208,0.68c-0.102,0.317-0.202,0.633-0.305,0.945c-0.083-0.001-0.168-0.002-0.252-0.002
			c-4.427,0-8.64,1.638-12.046,4.724c-1.147,1.039-2.139,2.232-2.949,3.552c-1.904,1.438-3.446,3.288-4.594,5.506
			c-2.965,5.715-2.909,12.398,0.153,18.341c1.086,2.101,2.593,4.072,4.374,5.727c2.917,5.53,8.009,9.442,13.702,10.506
			c4.078,0.758,8.242,0.14,11.799-1.74c1.14-0.029,2.312-0.157,3.49-0.381c4.039-0.756,7.628-2.852,10.226-5.948
			c4.603-0.141,9.171-0.614,13.633-1.41c-0.024,0.164-0.048,0.327-0.068,0.488c-0.332,2.578-0.364,5.163-0.08,7.707
			c-2.131,1.448-4.675,3.255-7.176,5.32c-7.641,6.303-12.155,12.492-15.096,20.694c-2.21,6.174-2.976,11.547-2.484,17.415
			c0.112,1.377,0.402,3.169,2.346,7.056c-0.533,2.335-0.884,4.754-1.044,7.201c-0.598,9.151,2.191,19.351,7.854,28.722
			c2.005,3.319,4.528,5.799,7.511,7.383c3.896,11.076,12.795,19.498,17.846,23.593c7.322,5.936,16.926,10.381,27.095,12.546
			c3.859,2.839,8.138,5.334,12.104,7.052c13.733,5.942,28.819,9.082,43.624,9.082c1.655,0,3.329-0.04,4.973-0.117
			c11.962-0.566,25.037-4.258,36.871-10.407c3.065-0.302,5.842-0.857,7.701-1.257c11.878-2.577,21.199-9.559,27.99-15.353
			c5.54-4.726,9.98-9.234,13.555-13.76c14.706-5.589,24.032-23.192,29.291-37.088c3.346-8.849,3.057-17.275,2.455-23.053
			c3.327-6.957,3.527-16.407,0.51-25.467c-0.276-0.828-0.588-1.669-0.957-2.58c-0.084-0.207-0.173-0.413-0.267-0.626l-0.028-0.063
			c-0.248-0.582-0.502-1.161-0.773-1.735c-0.105-0.221-0.213-0.44-0.32-0.655l-0.091-0.178c-0.255-0.513-0.516-1.021-0.792-1.53
			c-0.141-0.262-0.287-0.523-0.451-0.813c-0.281-0.497-0.572-0.99-0.863-1.466c-0.155-0.256-0.311-0.511-0.475-0.768
			c-0.316-0.502-0.647-0.999-0.957-1.458l-0.078-0.118c-0.127-0.189-0.255-0.378-0.377-0.552c-0.388-0.553-0.784-1.102-1.207-1.669
			l-0.277-0.372c-0.986-1.296-2.061-2.602-3.213-3.903l-0.389-0.43c-0.406-0.453-0.818-0.902-1.248-1.357l-0.542-0.565
			c-0.369-0.384-0.742-0.765-1.126-1.147l-0.441-0.437c0.042-1.683-0.048-3.377-0.271-5.05c-0.112-0.845-0.272-1.71-0.482-2.639
			c-0.052-0.234-0.109-0.466-0.168-0.7l-0.041-0.155c-0.165-0.642-0.348-1.251-0.56-1.909c-0.074-0.227-0.148-0.454-0.245-0.723
			c-0.31-0.867-0.628-1.633-0.96-2.343c-0.1-0.215-0.207-0.424-0.293-0.593c-0.307-0.599-0.602-1.17-0.932-1.736
			c-0.159-0.271-0.322-0.538-0.497-0.815c-0.291-0.462-0.594-0.912-0.885-1.323l-0.062-0.086c-0.17-0.241-0.342-0.482-0.52-0.715
			c-0.485-0.638-0.966-1.222-1.477-1.791c-0.204-0.227-0.417-0.445-0.669-0.704c-0.222-0.228-0.441-0.457-0.668-0.68
			c0.242-3.678,0.025-7.264-0.637-10.503c5.421-5.712,9.241-13.193,11.085-21.728c4.25-13.213,10.431-47.417-22.55-82.214
			l-1.724,1.633l1.683-1.68L251.377,57.042z"/>
		<path style="fill:#7D7D7D;" d="M249.951,55.615c-9.643-10.112-21.994-19.599-36.721-28.197
			c-2.12-1.229-52.494-29.824-103.254-6.111C82.604,34.091,63.457,54.03,51.436,82.272L51.255,82.7
			c-0.445,1.057-0.878,2.115-1.297,3.172l-0.148,0.37c-1.321,3.356-2.59,6.923-3.767,10.574l-0.08,0.252
			c-3.265,10.168-5.536,19.915-7.736,29.353c-0.639,2.748-1.268,5.44-1.912,8.106l-0.646,2.613
			c-0.262,1.046-0.528,2.076-0.794,3.083l-0.644,2.381c-0.123,0.439-0.245,0.874-0.369,1.305l-0.291,1.004
			c-0.151,0.513-0.305,1.019-0.467,1.538l-0.207,0.68c-0.102,0.317-0.202,0.633-0.306,0.944c-0.082-0.001-0.168-0.001-0.252-0.001
			c-4.427,0-8.639,1.638-12.045,4.724c-1.148,1.039-2.139,2.232-2.949,3.552c-1.904,1.438-3.447,3.288-4.595,5.505
			c-2.965,5.715-2.908,12.399,0.153,18.341c1.086,2.101,2.594,4.073,4.374,5.727c2.917,5.53,8.009,9.442,13.703,10.505
			c4.078,0.759,8.242,0.14,11.798-1.739c1.14-0.029,2.312-0.157,3.49-0.381c4.039-0.756,7.628-2.852,10.228-5.947
			c4.601-0.142,9.169-0.615,13.633-1.411c-0.026,0.164-0.048,0.327-0.069,0.487c-0.332,2.579-0.364,5.164-0.08,7.708
			c-2.13,1.448-4.675,3.255-7.175,5.32c-7.642,6.303-12.155,12.492-15.097,20.695c-2.21,6.174-2.976,11.546-2.484,17.415
			c0.112,1.377,0.402,3.169,2.346,7.056c-0.533,2.335-0.885,4.753-1.044,7.2c-0.597,9.151,2.192,19.351,7.854,28.722
			c2.005,3.32,4.528,5.799,7.512,7.383c3.895,11.076,12.793,19.497,17.845,23.593c7.321,5.937,16.926,10.381,27.095,12.546
			c3.859,2.839,8.139,5.334,12.104,7.052c13.733,5.941,28.818,9.082,43.625,9.082c1.654,0,3.329-0.04,4.971-0.118
			c11.964-0.566,25.039-4.258,36.872-10.406c3.066-0.302,5.843-0.858,7.7-1.257c11.88-2.578,21.201-9.559,27.992-15.354
			c5.54-4.726,9.98-9.233,13.554-13.76c14.706-5.589,24.032-23.193,29.292-37.089c3.345-8.848,3.057-17.274,2.454-23.053
			c3.328-6.956,3.528-16.406,0.51-25.466c-0.276-0.828-0.589-1.669-0.956-2.58c-0.085-0.207-0.174-0.412-0.268-0.625l-0.027-0.064
			c-0.246-0.581-0.502-1.16-0.774-1.734c-0.105-0.221-0.212-0.439-0.32-0.654l-0.09-0.179c-0.255-0.513-0.517-1.021-0.792-1.529
			c-0.143-0.263-0.289-0.524-0.452-0.813c-0.282-0.497-0.571-0.991-0.862-1.466c-0.156-0.256-0.313-0.511-0.475-0.768
			c-0.318-0.502-0.647-0.999-0.958-1.458l-0.078-0.117c-0.126-0.189-0.254-0.378-0.377-0.552c-0.387-0.553-0.784-1.102-1.208-1.668
			l-0.276-0.372c-0.985-1.296-2.062-2.603-3.212-3.903l-0.389-0.43c-0.407-0.453-0.818-0.902-1.249-1.357l-0.542-0.564
			c-0.369-0.384-0.742-0.765-1.125-1.148l-0.443-0.437c0.043-1.683-0.046-3.377-0.268-5.05c-0.113-0.845-0.272-1.711-0.482-2.639
			c-0.053-0.234-0.109-0.466-0.168-0.7l-0.041-0.155c-0.165-0.642-0.349-1.251-0.563-1.909c-0.072-0.227-0.146-0.454-0.244-0.723
			c-0.31-0.867-0.627-1.633-0.96-2.343c-0.1-0.215-0.206-0.423-0.293-0.593c-0.306-0.599-0.601-1.17-0.932-1.736
			c-0.158-0.272-0.322-0.538-0.497-0.815c-0.291-0.462-0.593-0.912-0.885-1.323l-0.061-0.086c-0.17-0.242-0.341-0.482-0.521-0.715
			c-0.485-0.638-0.966-1.222-1.476-1.791c-0.204-0.227-0.418-0.445-0.67-0.704c-0.221-0.229-0.442-0.457-0.668-0.679
			c0.243-3.678,0.026-7.264-0.636-10.503c5.421-5.712,9.24-13.193,11.084-21.729c4.25-13.213,10.432-47.416-22.549-82.213
			l-1.724,1.634l1.682-1.681L249.951,55.615z"/>
		<path style="fill:#6E6E6E;" d="M248.525,54.189c-9.643-10.112-21.995-19.599-36.721-28.198
			c-2.12-1.229-52.495-29.824-103.254-6.111C81.178,32.665,62.029,52.604,50.009,80.847l-0.18,0.428
			c-0.446,1.056-0.88,2.114-1.298,3.172l-0.147,0.369c-1.321,3.357-2.591,6.923-3.768,10.575l-0.08,0.251
			c-3.265,10.168-5.535,19.915-7.735,29.353c-0.64,2.748-1.268,5.441-1.914,8.107l-0.644,2.613
			c-0.263,1.046-0.528,2.076-0.794,3.083l-0.645,2.381c-0.122,0.439-0.244,0.874-0.369,1.306l-0.29,1.004
			c-0.152,0.513-0.306,1.019-0.468,1.538l-0.207,0.68c-0.101,0.317-0.203,0.632-0.305,0.943c-0.084-0.001-0.168-0.001-0.252-0.001
			c-4.427,0-8.64,1.638-12.046,4.724c-1.147,1.038-2.139,2.232-2.949,3.551c-1.903,1.438-3.447,3.288-4.594,5.505
			c-2.965,5.715-2.909,12.399,0.153,18.341c1.086,2.101,2.593,4.073,4.374,5.727c2.917,5.529,8.009,9.442,13.702,10.505
			c4.079,0.758,8.242,0.14,11.799-1.74c1.139-0.029,2.312-0.157,3.49-0.381c4.039-0.757,7.628-2.851,10.227-5.947
			c4.602-0.142,9.17-0.615,13.633-1.411c-0.025,0.164-0.048,0.327-0.068,0.488c-0.332,2.578-0.364,5.163-0.08,7.707
			c-2.131,1.448-4.675,3.256-7.176,5.32c-7.642,6.303-12.155,12.491-15.096,20.694c-2.21,6.174-2.977,11.546-2.484,17.415
			c0.112,1.378,0.401,3.169,2.346,7.056c-0.534,2.336-0.885,4.753-1.044,7.2c-0.598,9.151,2.191,19.351,7.854,28.722
			c2.004,3.32,4.527,5.8,7.511,7.383c3.895,11.076,12.794,19.498,17.846,23.593c7.321,5.937,16.926,10.381,27.095,12.546
			c3.859,2.839,8.139,5.333,12.104,7.052c13.733,5.941,28.818,9.082,43.624,9.082c1.655,0,3.329-0.039,4.972-0.117
			c11.964-0.566,25.039-4.259,36.872-10.406c3.066-0.303,5.842-0.858,7.7-1.257c11.88-2.578,21.199-9.559,27.99-15.353
			c5.541-4.726,9.981-9.234,13.555-13.761c14.707-5.588,24.033-23.193,29.293-37.088c3.345-8.848,3.055-17.274,2.454-23.052
			c3.327-6.956,3.527-16.406,0.509-25.467c-0.275-0.828-0.588-1.669-0.956-2.58c-0.085-0.208-0.173-0.413-0.267-0.626l-0.028-0.063
			c-0.247-0.582-0.501-1.161-0.773-1.734c-0.104-0.221-0.213-0.44-0.32-0.655l-0.09-0.179c-0.256-0.512-0.517-1.021-0.792-1.529
			c-0.142-0.263-0.289-0.524-0.452-0.813c-0.282-0.497-0.572-0.99-0.862-1.466c-0.156-0.255-0.313-0.511-0.475-0.767
			c-0.318-0.502-0.647-1-0.959-1.459l-0.077-0.117c-0.127-0.189-0.255-0.378-0.377-0.552c-0.387-0.553-0.784-1.102-1.208-1.668
			l-0.276-0.372c-0.986-1.296-2.061-2.603-3.213-3.903l-0.389-0.43c-0.407-0.453-0.817-0.902-1.249-1.357l-0.541-0.564
			c-0.369-0.384-0.742-0.766-1.125-1.148l-0.443-0.437c0.043-1.684-0.047-3.378-0.27-5.05c-0.112-0.845-0.272-1.711-0.48-2.64
			c-0.053-0.234-0.109-0.466-0.169-0.699l-0.041-0.156c-0.165-0.641-0.348-1.251-0.561-1.909c-0.073-0.226-0.148-0.454-0.244-0.722
			c-0.311-0.867-0.628-1.633-0.96-2.343c-0.101-0.214-0.207-0.423-0.293-0.593c-0.306-0.599-0.603-1.17-0.932-1.736
			c-0.158-0.272-0.323-0.537-0.497-0.814c-0.291-0.463-0.593-0.912-0.885-1.323l-0.061-0.086c-0.17-0.242-0.341-0.482-0.521-0.716
			c-0.486-0.638-0.967-1.223-1.477-1.791c-0.203-0.227-0.418-0.444-0.67-0.703c-0.221-0.229-0.441-0.457-0.668-0.679
			c0.242-3.679,0.025-7.264-0.635-10.503c5.42-5.713,9.24-13.193,11.084-21.729c4.25-13.213,10.43-47.416-22.549-82.213
			l-1.724,1.634l1.681-1.681L248.525,54.189z"/>
		<path style="fill:#606060;" d="M247.099,52.763c-9.642-10.113-21.995-19.598-36.721-28.198
			c-2.12-1.229-52.495-29.824-103.253-6.111C79.752,31.238,60.604,51.178,48.583,79.42l-0.18,0.429
			c-0.446,1.056-0.88,2.114-1.298,3.172l-0.147,0.369c-1.321,3.357-2.591,6.923-3.768,10.575l-0.08,0.251
			c-3.265,10.169-5.536,19.915-7.735,29.353c-0.641,2.749-1.269,5.44-1.914,8.106l-0.643,2.613
			c-0.263,1.047-0.529,2.077-0.794,3.083l-0.644,2.38c-0.122,0.44-0.244,0.875-0.369,1.306l-0.29,1.003
			c-0.152,0.513-0.306,1.019-0.468,1.539l-0.208,0.68c-0.1,0.317-0.202,0.632-0.304,0.944c-0.084-0.001-0.168-0.002-0.253-0.002
			c-4.426,0-8.639,1.638-12.046,4.724c-1.148,1.039-2.138,2.231-2.949,3.552c-1.902,1.438-3.446,3.288-4.593,5.505
			c-2.965,5.715-2.909,12.398,0.153,18.341c1.085,2.101,2.593,4.072,4.374,5.727c2.917,5.53,8.009,9.442,13.702,10.505
			c4.079,0.758,8.242,0.14,11.799-1.74c1.139-0.028,2.312-0.157,3.49-0.381c4.039-0.756,7.627-2.851,10.227-5.947
			c4.602-0.142,9.17-0.615,13.633-1.411c-0.025,0.165-0.049,0.327-0.069,0.488c-0.337,2.577-0.363,5.163-0.079,7.707
			c-2.131,1.448-4.675,3.255-7.176,5.32c-7.642,6.302-12.156,12.491-15.096,20.694c-2.21,6.174-2.977,11.546-2.484,17.415
			c0.112,1.377,0.401,3.169,2.346,7.057c-0.534,2.335-0.885,4.753-1.044,7.2c-0.598,9.151,2.191,19.351,7.854,28.722
			c2.004,3.319,4.527,5.799,7.511,7.383c3.896,11.076,12.794,19.498,17.846,23.593c7.321,5.937,16.926,10.381,27.095,12.546
			c3.859,2.84,8.139,5.334,12.103,7.052c13.733,5.942,28.819,9.082,43.625,9.082c1.655,0,3.329-0.04,4.972-0.117
			c11.963-0.566,25.039-4.258,36.872-10.407c3.066-0.302,5.842-0.857,7.7-1.257c11.88-2.578,21.199-9.559,27.99-15.353
			c5.541-4.726,9.98-9.234,13.555-13.76c14.707-5.589,24.033-23.193,29.292-37.088c3.346-8.848,3.056-17.275,2.455-23.052
			c3.327-6.957,3.527-16.407,0.509-25.467c-0.275-0.828-0.588-1.669-0.956-2.58c-0.085-0.208-0.173-0.413-0.267-0.626l-0.028-0.063
			c-0.247-0.581-0.501-1.161-0.774-1.734c-0.105-0.221-0.212-0.44-0.319-0.655l-0.09-0.179c-0.257-0.513-0.517-1.021-0.792-1.529
			c-0.143-0.263-0.289-0.525-0.452-0.814c-0.282-0.497-0.573-0.99-0.863-1.466c-0.155-0.255-0.312-0.511-0.474-0.767
			c-0.318-0.502-0.648-0.999-0.959-1.458l-0.077-0.117c-0.128-0.189-0.255-0.378-0.377-0.552c-0.386-0.554-0.785-1.102-1.208-1.668
			l-0.276-0.372c-0.986-1.296-2.061-2.602-3.213-3.903l-0.389-0.43c-0.407-0.453-0.818-0.902-1.249-1.357l-0.541-0.564
			c-0.369-0.384-0.742-0.766-1.126-1.148l-0.442-0.436c0.043-1.683-0.047-3.377-0.27-5.05c-0.112-0.845-0.27-1.711-0.48-2.639
			c-0.053-0.235-0.109-0.466-0.17-0.7l-0.04-0.155c-0.165-0.641-0.345-1.252-0.561-1.909c-0.072-0.227-0.148-0.454-0.244-0.723
			c-0.313-0.866-0.628-1.633-0.96-2.343c-0.101-0.215-0.204-0.425-0.293-0.593c-0.298-0.603-0.603-1.17-0.932-1.735
			c-0.159-0.272-0.323-0.538-0.497-0.815c-0.291-0.462-0.593-0.912-0.885-1.323l-0.061-0.086c-0.17-0.242-0.342-0.482-0.521-0.715
			c-0.486-0.638-0.968-1.221-1.477-1.791c-0.205-0.226-0.416-0.447-0.67-0.704c-0.219-0.23-0.441-0.456-0.668-0.679
			c0.242-3.679,0.025-7.265-0.635-10.503c5.42-5.713,9.24-13.193,11.084-21.729c4.25-13.213,10.43-47.417-22.549-82.213
			l-1.725,1.634l1.682-1.681L247.099,52.763z"/>
	</g>
	<path style="fill:#FFFFFF;" d="M247.099,52.763c-9.642-10.113-21.995-19.598-36.721-28.198
		c-2.12-1.229-52.495-29.824-103.253-6.111C79.752,31.238,60.604,51.178,48.583,79.42l-0.18,0.429
		c-0.446,1.056-0.88,2.114-1.298,3.172l-0.147,0.369c-1.321,3.357-2.591,6.923-3.768,10.575l-0.08,0.251
		c-3.265,10.169-5.536,19.915-7.735,29.353c-0.641,2.749-1.269,5.44-1.914,8.106l-0.643,2.613c-0.263,1.047-0.529,2.077-0.794,3.083
		l-0.644,2.38c-0.122,0.44-0.244,0.875-0.369,1.306l-0.29,1.003c-0.152,0.513-0.306,1.019-0.468,1.539l-0.208,0.68
		c-0.1,0.317-0.202,0.632-0.304,0.944c-0.084-0.001-0.168-0.002-0.253-0.002c-4.426,0-8.639,1.638-12.046,4.724
		c-1.148,1.039-2.138,2.231-2.949,3.552c-1.902,1.438-3.446,3.288-4.593,5.505c-2.965,5.715-2.909,12.398,0.153,18.341
		c1.085,2.101,2.593,4.072,4.374,5.727c2.917,5.53,8.009,9.442,13.702,10.505c4.079,0.758,8.242,0.14,11.799-1.74
		c1.139-0.028,2.312-0.157,3.49-0.381c4.039-0.756,7.627-2.851,10.227-5.947c4.602-0.142,9.17-0.615,13.633-1.411
		c-0.025,0.165-0.049,0.327-0.069,0.488c-0.337,2.577-0.363,5.163-0.079,7.707c-2.131,1.448-4.675,3.255-7.176,5.32
		c-7.642,6.302-12.156,12.491-15.096,20.694c-2.21,6.174-2.977,11.546-2.484,17.415c0.112,1.377,0.401,3.169,2.346,7.057
		c-0.534,2.335-0.885,4.753-1.044,7.2c-0.598,9.151,2.191,19.351,7.854,28.722c2.004,3.319,4.527,5.799,7.511,7.383
		c3.896,11.076,12.794,19.498,17.846,23.593c7.321,5.937,16.926,10.381,27.095,12.546c3.859,2.84,8.139,5.334,12.103,7.052
		c13.733,5.942,28.819,9.082,43.625,9.082c1.655,0,3.329-0.04,4.972-0.117c11.963-0.566,25.039-4.258,36.872-10.407
		c3.066-0.302,5.842-0.857,7.7-1.257c11.88-2.578,21.199-9.559,27.99-15.353c5.541-4.726,9.98-9.234,13.555-13.76
		c14.707-5.589,24.033-23.193,29.292-37.088c3.346-8.848,3.056-17.275,2.455-23.052c3.327-6.957,3.527-16.407,0.509-25.467
		c-0.275-0.828-0.588-1.669-0.956-2.58c-0.085-0.208-0.173-0.413-0.267-0.626l-0.028-0.063c-0.247-0.581-0.501-1.161-0.774-1.734
		c-0.105-0.221-0.212-0.44-0.319-0.655l-0.09-0.179c-0.257-0.513-0.517-1.021-0.792-1.529c-0.143-0.263-0.289-0.525-0.452-0.814
		c-0.282-0.497-0.573-0.99-0.863-1.466c-0.155-0.255-0.312-0.511-0.474-0.767c-0.318-0.502-0.648-0.999-0.959-1.458l-0.077-0.117
		c-0.128-0.189-0.255-0.378-0.377-0.552c-0.386-0.554-0.785-1.102-1.208-1.668l-0.276-0.372c-0.986-1.296-2.061-2.602-3.213-3.903
		l-0.389-0.43c-0.407-0.453-0.818-0.902-1.249-1.357l-0.541-0.564c-0.369-0.384-0.742-0.766-1.126-1.148l-0.442-0.436
		c0.043-1.683-0.047-3.377-0.27-5.05c-0.112-0.845-0.27-1.711-0.48-2.639c-0.053-0.235-0.109-0.466-0.17-0.7l-0.04-0.155
		c-0.165-0.641-0.345-1.252-0.561-1.909c-0.072-0.227-0.148-0.454-0.244-0.723c-0.313-0.866-0.628-1.633-0.96-2.343
		c-0.101-0.215-0.204-0.425-0.293-0.593c-0.298-0.603-0.603-1.17-0.932-1.735c-0.159-0.272-0.323-0.538-0.497-0.815
		c-0.291-0.462-0.593-0.912-0.885-1.323l-0.061-0.086c-0.17-0.242-0.342-0.482-0.521-0.715c-0.486-0.638-0.968-1.221-1.477-1.791
		c-0.205-0.226-0.416-0.447-0.67-0.704c-0.219-0.23-0.441-0.456-0.668-0.679c0.242-3.679,0.025-7.265-0.635-10.503
		c5.42-5.713,9.24-13.193,11.084-21.729c4.25-13.213,10.43-47.417-22.549-82.213l-1.725,1.634l1.682-1.681L247.099,52.763z"/>
	<g>
		<g>
			<g>
				<g>
					<path style="fill:#FE0000;" d="M255.933,138.179c0,0,30.601-55.394-51.511-103.34c0,0-46.545-26.984-92.273-5.625
						C36.632,64.484,56.344,147.332,28.327,170.581c0,0,52.653,17.775,87.812-31.744
						C151.295,89.319,255.933,138.179,255.933,138.179z"/>
					<path style="fill:#CC191E;" d="M60.912,80.888c0.494,1.921,1.18,3.725,2.02,5.261c3.067,5.621,9.826,8.867,14.992,3.595
						c4.35-4.441,6.71-10.525,9.49-15.98c3.699-7.251,9.82-13.136,16.482-17.723c14.169-9.754,31.552-14.674,48.654-15.385
						c33.007-1.379,68.536,10.478,91.997,34.214c0.509,0.513,1.451,0.079,1.142-0.671c-1.851-4.485-4.2-9.031-7.073-13.123
						c37.88,39.85,17.315,77.104,17.315,77.104s-104.638-48.86-139.794,0.659c-35.158,49.518-87.812,31.744-87.812,31.744
						C46.242,155.714,44.646,116.471,60.912,80.888z"/>
					<path style="fill:#CC191E;" d="M37.268,158.45c8.39,1.588,17.828-0.794,25.499-4.058c6.019-2.562,14.368-6.615,15.938-13.698
						c1.618-7.31-1.521-15.266-4.448-21.846c-2.687-6.035-5.986-11.759-8.881-17.678c2.921,2.395,6.025,4.571,8.692,7.26
						c0.333,0.336,0.944,0.359,1.142-0.154c1.483-3.834,3.624-7.304,4.93-11.251c1.438-4.35,2.703-8.713,5.241-12.573
						c5.494-8.369,12.382-16.16,19.925-22.75c12.887-11.256,30.241-14.364,46.893-14.102c36.586,0.57,74.347,11.743,100.732,38.067
						c0.37,0.369,1.143,0.322,1.184-0.325c0.062-0.904,0.048-1.789,0.004-2.669c15.479,30.741,1.814,55.506,1.814,55.506
						s-104.638-48.86-139.794,0.659c-35.158,49.518-87.812,31.744-87.812,31.744C32.037,167.503,34.901,163.367,37.268,158.45z"/>
					<path style="fill:#D3D3D3;" d="M20.601,171.893c0.781,1.51,2.055,2.835,3.563,3.705c0.83,3.062,3.403,5.794,6.139,6.305
						c2.584,0.482,4.966-0.562,6.184-2.545c1.378,0.619,2.949,0.771,4.747,0.427c2.979-0.557,4.982-3.233,4.534-6.248
						c-0.309-2.069-1.477-4.396-3.138-6.104c1.276-2.106,1.361-4.783-0.128-6.896c-1.576-2.234-4.823-4.475-7.718-3.504
						c-0.741,0.25-1.358,0.583-1.917,0.96c-2.494-1.317-5.289-1.205-7.455,0.758c-1.041,0.942-1.492,2.215-1.563,3.535
						c-1.328-0.023-2.571,0.568-3.409,2.187C19.178,166.905,19.362,169.487,20.601,171.893z"/>
					<path style="fill:#EFF2EE;" d="M26.049,170.063c0.544,1.047,1.434,1.974,2.479,2.577c0.58,2.132,2.52,4.228,4.428,4.582
						c1.798,0.338,3.3-0.583,4.151-1.963c0.958,0.43,2.051,0.534,3.303,0.297c2.072-0.393,3.47-2.252,3.156-4.352
						c-0.216-1.439-1.029-3.06-2.184-4.249c0.887-1.466,0.944-3.327-0.091-4.797c-1.098-1.557-3.357-3.116-5.37-2.439
						c-0.518,0.172-0.943,0.403-1.334,0.666c-1.735-0.919-3.683-0.839-5.19,0.528c-0.724,0.659-1.041,1.541-1.087,2.463
						c-0.928-0.019-1.791,0.393-2.376,1.52C25.059,166.59,25.185,168.386,26.049,170.063z"/>
					<path style="opacity:0.4;fill:#F9B4A9;" d="M227.539,53.772c0,0-44.627-42.911-106.848-26.251c0,0-41.721,16.566-55.109,48.125
						c0,0,31.882-48.175,88.008-47.998C197.233,27.784,227.539,53.772,227.539,53.772z"/>
				</g>
				<g>
					<g>
						<path style="fill:#FED1B4;" d="M221.43,161.602c0,0,3.348-12.558,18.109-11.048c14.759,1.51,9.03,43.049-13.467,39.923
							C216.971,189.214,221.43,161.602,221.43,161.602z"/>
						<path style="fill:#FED1B4;" d="M239.539,150.554c-14.762-1.51-18.109,11.048-18.109,11.048s-4.459,27.612,4.643,28.875
							C248.569,193.604,254.298,152.064,239.539,150.554z M238.277,176.264c-3.458-3.101-3.031-7.778-1.307-11.648
							c-1.737,0.927-3.042,2.325-4.019,4.163c-0.252,0.471-1.137,0.419-1.22-0.162c-0.666-4.727,0.887-9.947,5.992-11.199
							c0.942-0.232,1.801-0.261,2.576-0.128c1.266-0.07,2.49,0.292,3.469,1.336c3.222,3.454,2.02,8.984,0.484,12.972
							C243.541,173.439,241.098,178.794,238.277,176.264z"/>
						<g>
							<path style="fill:#EFF2EE;" d="M102.535,150.872c0,0-0.383,8.603-9.345,8.583c-8.964-0.023-25.738-30.176-21.393-48.448
								c4.347-18.272,29.209-50.695,86.529-56.792c57.135-6.076,96.252,26.162,100.474,59.512
								c4.222,33.35-16.596,43.932-25.914,42.476c-9.314-1.458,6.313-40.493-43.145-46.706
								C140.288,103.285,103.313,124.348,102.535,150.872z"/>
							<path style="fill:#DFE2DF;" d="M258.801,113.727c-1.898-15.013-10.891-29.786-25.388-40.951
								c0.961,1.968,1.268,4.168,0.374,6.427c-2.186,5.524-7.791,4.616-12.349,2.656c-8.935-3.845-17.653-7.481-27.271-9.327
								c-10.195-1.958-20.657-2.551-30.998-1.578c-18.156,1.708-36.636,6.604-51.894,16.911
								c-7.851,5.305-15.256,11.961-20.75,19.732c-2.888,4.085-5.614,8.622-6.981,13.469c-1.362,4.827-1.349,9.856-2.282,14.758
								c-0.087,0.461-0.815,0.682-1.114,0.292c-10.771-13.978-4.987-35.222,5.155-47.889c2.149-2.689,4.453-5.228,6.872-7.638
								c-11.96,10.499-18.368,21.971-20.378,30.418c-4.346,18.272,12.429,48.425,21.393,48.448c8.962,0.02,9.345-8.583,9.345-8.583
								c0.777-26.524,37.753-47.587,87.207-41.376c49.457,6.213,33.83,45.249,43.145,46.706
								C242.205,157.658,263.022,147.077,258.801,113.727z"/>
							<path style="fill:#DFE2DF;" d="M258.801,113.727c-0.51-4.038-1.548-8.052-3.055-11.985
								c0.184,7.271-1.479,15.041-7.705,19.553c-0.275,0.2-0.764,0.063-0.91-0.242c-4.215-8.775-8.725-16.767-16.455-22.968
								c-7.611-6.104-16.477-10.447-25.714-13.503c-16.843-5.571-34.924-7.403-52.545-5.195
								c-17.777,2.223-35.546,8.444-48.882,20.789c-13.252,12.264-22.256,29.833-16.305,47.975c0.18,0.546-0.494,1.064-0.981,0.747
								c-4.004-2.619-7.261-5.774-9.899-9.337c4.838,11.019,11.983,19.883,16.841,19.896c8.962,0.02,9.345-8.583,9.345-8.583
								c0.777-26.524,37.753-47.587,87.207-41.376c49.457,6.213,33.83,45.249,43.145,46.706
								C242.205,157.658,263.022,147.077,258.801,113.727z"/>
							<path style="fill:#FFFFFF;" d="M82.271,96.33c0,0,37.238-58.333,128.922-34.568C211.193,61.761,129.27,43.131,82.271,96.33z"
								/>
						</g>
						<path style="fill:#FED1B4;" d="M113.666,161.379c0,0-2.573-12.738-17.397-12.14c-14.823,0.606-11.654,42.417,10.992,40.678
							C116.426,189.214,113.666,161.379,113.666,161.379z"/>
						<path style="fill:#FED1B4;" d="M113.666,161.379c0,0-2.573-12.738-17.397-12.14c-14.823,0.606-11.654,42.417,10.992,40.678
							C116.426,189.214,113.666,161.379,113.666,161.379z M100.178,169.344c-0.465,3.808-6.429,3.931-5.951-3.923
							c-2.008,4.104,1.056,12.1,0.512,12.021c-4.555-0.663-5.35-5.055-5.856-8.908c-0.56-4.284-0.259-12.542,5.836-12.44
							C100.307,156.19,100.631,165.635,100.178,169.344z"/>
						<path style="fill:#FED1B4;" d="M223.764,172.577c-1.113-5.362-4.273-9.954-4.814-16.2c-0.846-9.863-0.071-26.221-5.735-34.885
							c-4.494-6.874-12.045-10.47-19.74-12.586c-16.527-4.545-37.172-5.966-53.238,0.929c-7.367,3.163-14.664,7.128-20.306,12.93
							c-6.008,6.17-7.975,15.317-8.256,23.684c-0.236,7.144,1.011,14.476-0.29,21.558c-1.366,7.426-5.948,13.862-4.112,21.729
							c4.033,17.243,24.469,25.157,40.105,26.714c4.808,0.479,9.783,0.494,14.602,0.13c20.655-1.572,43.029-7.375,56.555-24.256
							C222.469,187.41,225.073,178.89,223.764,172.577z"/>
						<path style="fill:#FED1B4;" d="M223.764,172.577c-1.113-5.362-4.273-9.954-4.814-16.2c-0.846-9.863-0.071-26.221-5.735-34.885
							c-4.494-6.874-12.045-10.47-19.74-12.586c-16.527-4.545-37.172-5.966-53.238,0.929c-7.367,3.163-14.664,7.128-20.306,12.93
							c-6.008,6.17-7.975,15.317-8.256,23.684c-0.236,7.144,1.011,14.476-0.29,21.558c-1.366,7.426-5.948,13.862-4.112,21.729
							c4.033,17.243,24.469,25.157,40.105,26.714c4.808,0.479,9.783,0.494,14.602,0.13c20.655-1.572,43.029-7.375,56.555-24.256
							C222.469,187.41,225.073,178.89,223.764,172.577z M181.515,172.768c-0.124,0.281-0.272,0.533-0.417,0.799
							c-0.342,0.817-0.869,1.554-1.541,2.166c-4.323,4.636-12.328,4.696-18.3,3.899c-3.585-0.481-14.929-2.413-11.632-8.536
							c3.702-6.868,14.596-7.443,21.366-6.542c3.084,0.406,8.546,0.74,10.065,4.092c0.521,1.15,0.657,2.384,0.458,3.556
							C181.588,172.369,181.604,172.561,181.515,172.768z M212.809,158.744c-0.652,4.201-3.076,9.587-6.131,12.587
							c-0.046,0.042-0.088,0.085-0.132,0.13c-3.773,3.629-9.218,5.417-14.145,6.815c-1.766,0.503-9.352,2.986-10.213-0.179
							c-0.8-2.939,2.242-7.542,4.176-9.481c4.738-4.759,11.423-6.467,18.021-6.672c-1.532-1.801-3.285-3.267-5.814-3.77
							c-0.699-0.138,5.18-2.379,7.671-3.267c2.328-0.828,1.636-5.149,1.442-6.958c-0.007-0.091-0.021-0.18-0.037-0.27
							c-0.032-0.084-0.049-0.177-0.043-0.289c0-0.019-0.002-0.039,0.001-0.06c-0.255-1.966-0.687-3.876-1.246-5.748
							c-0.55-1.281-1.206-2.53-1.811-3.811c-2.365-3.384-4.717-7.468-8.745-8.491c-4.271-1.083-9.589-0.872-13.948,0.872
							c-3.737,2.468-7.816,5.958-7.823,5.386c-0.009-1.21-0.028-2.409,0.006-3.601c-5.238,9.251-1.104,25.019-3.503,26.917
							c-3.782,2.988-10.779,3.082-12.217-1.141c-0.171-0.503-0.398-14.393-0.911-17.447c-0.117-0.687-0.257-1.304-0.419-1.89
							c-0.122,0.796-1.706,2.829-1.924,2.393c-3.88-7.805-11.936-13.347-20.848-9.861c-8.855,3.467-13.731,10.277-13.367,22.181
							c0.017,0.49,0.002,4.03,0.917,3.801c0.659-0.164,1.331-0.356,2.018-0.382c1.335-0.047,4.35,1.28,3.964,1.658
							c-0.352,0.341-2.246,2.304-3.575,3.902c6.197-1.567,14.115,0.177,18.72,4.475c2.403,2.244,4.461,5.718,4.314,8.947
							c0.085,1.438-0.183,2.902-1.059,3.923c-4.552,5.326-15.293-0.927-19.379-4.058c-0.631-0.487-1.714-1.492-2.825-2.729
							c-3.384-2.631-6.184-6.003-7.674-9.939c-1.211-3.201-1.254-6.7-0.505-10.071c0.351-5.162,1.789-9.854,4.044-14.076
							c5.152-11.16,16.688-18.852,28.311-23.21c4.334-1.622,8.854-3.105,13.451-3.728c14.177-1.913,33.394,3.666,43.252,14.122
							c6.89,7.308,8.612,15.786,8.517,25.881C213.315,153.988,213.176,156.388,212.809,158.744z"/>
						<g>
							<path style="fill:#613021;" d="M190.192,148.716c-2.703,0.755-4.53,4.452-4.079,8.25c0.459,3.798,3.016,6.269,5.72,5.511
								c2.706-0.758,4.532-4.449,4.076-8.25C195.459,150.427,192.898,147.964,190.192,148.716z"/>
							<path style="fill:#3C1504;" d="M190.691,151.491c-1.598,0.445-2.672,2.624-2.408,4.86c0.271,2.239,1.779,3.697,3.373,3.249
								c1.596-0.445,2.673-2.621,2.405-4.86C193.796,152.501,192.283,151.049,190.691,151.491z"/>
							<path style="fill:#FFFFFF;" d="M189.705,150.858c-0.607-0.005-1.205,0.651-1.34,1.466c-0.13,0.814,0.251,1.479,0.86,1.487
								c0.604,0.003,1.206-0.654,1.335-1.471C190.695,151.528,190.309,150.861,189.705,150.858z"/>
							<path style="fill:#FFFFFF;" d="M188.261,155.143c-0.339,0.109-0.547,0.589-0.472,1.065c0.082,0.474,0.416,0.773,0.752,0.664
								c0.338-0.109,0.551-0.586,0.47-1.064C188.933,155.328,188.597,155.034,188.261,155.143z"/>
						</g>
						<g>
							<path style="fill:#613021;" d="M136.467,148.589c-2.705,0.752-4.535,4.446-4.082,8.247c0.459,3.801,3.014,6.269,5.719,5.511
								c2.709-0.757,4.532-4.449,4.08-8.249C141.732,150.302,139.17,147.834,136.467,148.589z"/>
							<path style="fill:#3C1504;" d="M136.962,151.361c-1.596,0.445-2.671,2.622-2.406,4.86c0.271,2.239,1.778,3.697,3.371,3.249
								c1.593-0.442,2.674-2.622,2.403-4.86C140.068,152.371,138.556,150.919,136.962,151.361z"/>
							<path style="fill:#FFFFFF;" d="M135.977,150.729c-0.607-0.005-1.206,0.653-1.341,1.468c-0.13,0.814,0.256,1.479,0.858,1.486
								c0.607,0.003,1.206-0.656,1.338-1.47C136.966,151.398,136.582,150.731,135.977,150.729z"/>
							<path style="fill:#FFFFFF;" d="M134.531,155.016c-0.335,0.107-0.551,0.585-0.471,1.062c0.077,0.477,0.416,0.776,0.75,0.667
								c0.342-0.109,0.551-0.588,0.475-1.068C135.204,155.201,134.868,154.904,134.531,155.016z"/>
						</g>
						<g>
							<path style="fill:#FFFEEE;" d="M176.607,145.369c2.19,2.624,3.498,1.109,5.529-0.963c3.695-3.78,8.694-4.694,13.559-2.429
								c2.204,1.023,4.316,2.278,6.695,2.822c4.043,0.924,1.416-5.571,0.754-6.648c-4.027-6.563-13.246-9.497-20.48-7.073
								c-1.293,0.427-2.611,1.314-3.775,2.473C175.984,136.442,173.565,141.716,176.607,145.369z"/>
							<path style="fill:#DCDDDE;" d="M203.933,139.939c-0.257,0.346-0.676,0.635-1.353,0.809c-1.906,0.5-3.822-0.552-5.499-1.361
								c-3.1-1.489-6.522-2.002-9.891-0.935c-2.82,0.898-5.124,2.947-7.989,3.645c-0.938,0.224-2.328-0.19-2.688-1.19
								c-0.467-1.293-0.495-2.54-0.226-3.715c-1.314,2.669-1.687,5.771,0.319,8.177c2.19,2.624,3.498,1.109,5.529-0.963
								c3.695-3.78,8.694-4.694,13.559-2.429c2.204,1.023,4.316,2.278,6.695,2.822C205.355,145.473,204.734,142.177,203.933,139.939
								z"/>
							<path style="fill:#FFFFFF;" d="M177.35,136.843c0,0,2.3-5.886,11.273-5.839c8.973,0.05,14.34,8.513,14.34,8.513
								s-6.068-7.154-14.146-7.154C180.739,132.366,177.35,136.843,177.35,136.843z"/>
						</g>
						<path style="fill:#D17E58;" d="M167.571,163.045c-3.249-0.225-7.876,0.499-11.709,2.275c0.023-0.136,0.052-0.252,0.054-0.31
							c0.043-0.661,0.212-1.237,0.198-1.895c-0.025-1.286-0.058-2.616,0.055-3.899c0.018-0.216-0.349,0.106-0.374,0.216
							c-0.282,1.25-0.419,2.536-0.63,3.806c-0.143,0.883-0.325,1.773-0.462,2.666c-0.956,0.523-1.838,1.119-2.616,1.794
							c-2.472,1.546-4.176,3.689-4.195,6.537c-0.037,4.907,6.193,7.963,10.072,8.934c5.841,1.461,12.924,0.838,18.299-1.833
							c0.209-0.104,0.622-0.827,0.178-0.643c-7.448,3.15-16.331,2.523-23.077-2.012c-2.052-1.377-3.899-3.967-3.354-6.534
							c0.56-2.647,3.879-4.464,6.128-5.323c6.788-2.587,13.891-2.804,20.867-0.362c1.489,0.52,3.113,1.413,3.882,2.876
							c0.84,1.598,0.073,4.146-0.892,5.553c-0.168,0.245,0.078,0.281,0.223,0.098C187.892,165.559,175.096,163.563,167.571,163.045z
							"/>
						<g>
							<path style="fill:#FFFEEE;" d="M145.917,133.576c-1.374-0.903-2.844-1.505-4.193-1.666
								c-7.571-0.919-16.02,3.801-18.645,11.04c-0.433,1.187-1.705,8.078,2.075,6.362c2.215-1.01,4.035-2.664,5.989-4.108
								c4.312-3.197,9.392-3.304,13.774-0.343c2.403,1.624,3.988,2.845,5.605-0.167
								C152.771,140.505,149.344,135.823,145.917,133.576z"/>
							<path style="fill:#DCDDDE;" d="M151.082,140.451c-0.234,0.961-0.807,1.684-1.939,1.786c-2.712,0.247-3.855-2.388-6.331-2.893
								c-3.16-0.643-7.666-0.37-10.504,1.411c-2.116,1.325-6.203,5.48-8.78,3.204c-0.238-0.211-0.41-0.438-0.552-0.667
								c-0.484,1.796-1.331,7.609,2.179,6.019c2.215-1.01,4.035-2.664,5.989-4.108c4.312-3.197,9.392-3.304,13.774-0.343
								c2.403,1.624,3.988,2.845,5.605-0.167C151.272,143.296,151.38,141.849,151.082,140.451z"/>
							<path style="fill:#FFFFFF;" d="M124.356,141.942c0,0,2.708-8.377,15.842-8.905c0,0,8.084-0.091,9.782,6.464
								c0,0-4.844-6.55-13.562-4.699C127.701,136.651,124.356,141.942,124.356,141.942z"/>
						</g>
						<path style="fill:#FFFEEE;" d="M271.787,215.611c-3.51-10.525-12.811-19.342-21.419-25.783
							c-9.352-6.997-18.38-13.823-23.722-24.449c-3.204-6.375-5.977-11.525-6.678-18.654c-2.646-2.39-5.707,14.536-7.026,18.344
							c-6.382,18.447-31.962,18.34-47.825,18.626c-14.63,0.266-27.746,1.843-41.057-6.183c-3.2-1.932-11.853-13.937-11.808-16.718
							c0.042-2.707-0.082-8.549-3.35-9.478c-0.274-0.081-0.872,0.69-0.607,0.81c0.022,0.01,0.035,0.026,0.058,0.036l0,0
							c1.983,12.805-7.27,27.829-15.967,36.383c-7.371,7.252-16.935,11.67-24.878,18.228c-5.386,4.443-9.088,8.887-11.472,15.536
							c-1.507,4.212-2.205,7.95-1.828,12.449c0.062,0.752,2.763,6.255,3.44,6.271c-1.201,3.049-1.899,6.267-2.125,9.724
							c-0.495,7.588,2.312,15.426,6.171,21.809c1.969,3.265,3.983,3.798,7.162,3.872c0.208,1.205,0.447,2.418,0.76,3.647
							c2.013,7.963,8.57,15.364,14.747,20.372c6.745,5.469,15.53,9.119,24.629,10.637c3.989,3.256,8.46,5.836,11.806,7.286
							c13.616,5.892,28.485,8.703,43.32,8.002c11.215-0.531,23.268-4.217,34.064-10.215c3.34-0.109,6.771-0.809,8.551-1.192
							c8.793-1.908,16.088-7.055,22.802-12.782c4.683-3.996,10.086-9.164,14.11-15.023c12.648-2.164,21.365-20.503,25.335-30.992
							c2.701-7.145,2.339-14.187,1.249-21.549C274.482,229.825,273.64,221.169,271.787,215.611z"/>
						<path style="fill:#DCDDDE;" d="M271.787,215.611c-3.51-10.525-12.811-19.342-21.419-25.783
							c-9.352-6.997-18.38-13.823-23.722-24.449c-3.204-6.375-5.977-11.525-6.678-18.654c-2.646-2.39-5.707,14.536-7.026,18.344
							c-6.382,18.447-31.962,18.34-47.825,18.626c-14.63,0.266-27.746,1.843-41.057-6.183c-3.2-1.932-11.853-13.937-11.808-16.718
							c0.042-2.707-0.082-8.549-3.35-9.478c-0.274-0.081-0.872,0.69-0.607,0.81c0.022,0.01,0.035,0.026,0.058,0.036l0,0
							c1.983,12.805-7.27,27.829-15.967,36.383c-7.371,7.252-16.935,11.67-24.878,18.228c-5.386,4.443-9.088,8.887-11.472,15.536
							c-1.507,4.212-2.205,7.95-1.828,12.449c0.062,0.752,2.763,6.255,3.44,6.271c-1.201,3.049-1.899,6.267-2.125,9.724
							c-0.495,7.588,2.312,15.426,6.171,21.809c1.969,3.265,3.983,3.798,7.162,3.872c0.208,1.205,0.447,2.418,0.76,3.647
							c2.013,7.963,8.57,15.364,14.747,20.372c6.745,5.469,15.53,9.119,24.629,10.637c3.989,3.256,8.46,5.836,11.806,7.286
							c13.616,5.892,28.485,8.703,43.32,8.002c11.215-0.531,23.268-4.217,34.064-10.215c3.34-0.109,6.771-0.809,8.551-1.192
							c8.793-1.908,16.088-7.055,22.802-12.782c4.683-3.996,10.086-9.164,14.11-15.023c12.648-2.164,21.365-20.503,25.335-30.992
							c2.701-7.145,2.339-14.187,1.249-21.549C274.482,229.825,273.64,221.169,271.787,215.611z M244.227,216.477
							c-2.648-4.344-7.267-7.627-12.399-8.512c9.241,13.386,8.781,34.464-5.263,44.041c4.806-0.701,8.793-3.777,11.603-7.656
							c0.302-0.417,1.205-0.336,1.115,0.297c-1.389,10.043-9.308,17.777-17.217,23.702c-8.212,6.147-17.638,11.04-27.367,14.521
							c-0.551,0.198-0.863-0.445-0.674-0.859c1.22-2.655,2.474-5.263,3.425-7.976c-8.097,8.133-20.112,12.063-31.932,13.417
							c-7.854,1.869-16.086,1.942-24.491,0.807c-0.522-0.067-0.568-0.849-0.141-1.06c1.145-0.573,7.76-4.826,10.477-7.56
							c-8.737,4.368-19.348,5.987-28.969,5.329c-9.684-0.664-19.726-3.821-25.508-11.577c0.963,3.634,2.726,6.927,5.48,9.739
							c0.482,0.492-0.129,1.203-0.73,0.909c-12.281-5.949-23.936-16.359-25.696-30.194c-0.069-0.547,0.684-0.708,1.026-0.409
							c1.467,1.281,3.174,2.101,5.109,2.004c-4.443-6.255-8.024-13.503-7.961-21.247c0.063-7.583,3.006-14.417,7.229-20.641
							c-4.506,1.989-8.799,5.781-10.445,10.218c-0.19,0.508-1.015,0.596-1.157,0c-2.264-9.359,6.86-16.325,13.739-21.177
							c6.435-4.537,13.422-8.835,18.878-14.445c7.817-6.081,10.767-17.67,10.919-17.173c2.401,7.919,5.554,15.018,14.141,18.015
							c10.939,3.821,22.789,5.633,34.398,5.625c1.576,0,3.153-0.021,4.727-0.031c1.64-0.255,3.462-0.271,4.467-0.4
							c3.42-0.438,7.112-0.578,10.401-1.656c11.133-3.654,22.988-7.198,30.249-16.803c0.292-0.385,4.296,11.079,8.481,14.825
							c3.621,3.234,8.486,5.027,12.713,7.396C240.277,202.105,244.531,216.975,244.227,216.477z"/>
						<path style="fill:#DCDDDE;" d="M271.787,215.611c-3.064-9.195-10.545-17.08-18.127-23.221c0.797,1.169,1.61,2.335,2.354,3.558
							c1.877,3.087,3.078,6.474,4.232,9.879c2.495,7.338,2.092,15.054,2.976,22.663c0.074,0.657-0.97,0.917-1.241,0.336
							c-1.66-3.546-4.42-5.896-7.465-7.966c3.595,6.517,5.051,14.456,4.914,21.662c-0.216,11.308-5.548,22.364-13.393,30.385
							c-0.391,0.398-1.179,0.115-1.137-0.474c0.216-3.082-0.007-6.12-0.369-9.15c-1.818,9.236-6.811,17.743-13.397,24.598
							c-8.925,9.286-21.753,18.582-34.967,19.534c-0.529,0.04-0.798-0.593-0.573-1.004c1.395-2.593,2.317-5.293,2.926-8.07
							c-8.989,11.392-23.469,17.191-37.758,18.165c-7.964,0.544-15.394-0.643-23.171-2.158c-7.516-1.466-15.713-2.988-21.64-8.208
							c-0.369-0.325-0.179-1.013,0.297-1.114c4.471-0.964,8.397-2.857,12.121-5.142c-8.193,2.213-16.791,2.845-25.028,0.747
							c-10.787-2.749-23.76-10.525-27.262-21.76c-0.19-0.615,0.491-0.974,0.981-0.75c1.874,0.835,3.654,1.236,5.623,0.999
							c-2.653-3.743-6.851-6.255-9.489-10.103c-2.813-4.092-4.529-8.405-6.166-13.047c-3.301-9.377-3.158-18.176-0.574-27.485
							c-1.936,2.041-3.12,4.654-4.38,7.193c-0.256,0.521-1.086,0.377-1.218-0.165c-2.489-10.345,0.833-21.179,7.418-29.34
							c-0.253,0.203-0.519,0.391-0.766,0.599c-5.386,4.443-9.088,8.887-11.472,15.536c-1.507,4.212-2.205,7.95-1.828,12.449
							c0.062,0.752,2.763,6.255,3.44,6.271c-1.201,3.049-1.899,6.267-2.125,9.724c-0.495,7.588,2.312,15.426,6.171,21.809
							c1.969,3.265,3.983,3.798,7.162,3.872c0.208,1.205,0.447,2.418,0.76,3.647c2.013,7.963,8.57,15.364,14.747,20.372
							c6.745,5.469,15.53,9.119,24.629,10.637c3.989,3.256,8.46,5.836,11.806,7.286c13.616,5.892,28.485,8.703,43.32,8.002
							c11.215-0.531,23.268-4.217,34.064-10.215c3.34-0.109,6.771-0.809,8.551-1.192c8.793-1.908,16.088-7.055,22.802-12.782
							c4.683-3.996,10.086-9.164,14.11-15.023c12.648-2.164,21.365-20.503,25.335-30.992c2.701-7.145,2.339-14.187,1.249-21.549
							C274.482,229.825,273.64,221.169,271.787,215.611z"/>
						<path style="fill:#FFFEEE;" d="M217.12,87.387c0.468-0.367,0.906-0.997,0.716-1.411c-3.542-7.635-20.547-10.832-27.689-10.66
							c-4.709,0.114-9.188,1.231-13.577,2.949c-2,0.781-3.15,1.512-3.822,2.53c1.141-1.729,2.038-3.712,3.047-5.537
							c0.138-0.247,0.191-0.546,0.019-0.778c-0.135-0.19-0.273-0.38-0.41-0.567c-0.109-0.15-0.412-0.036-0.529,0.01
							c-2.751,1.117-5.261,2.117-7.268,4.405c-0.235,0.269-0.64,0.794-1.088,1.414c-0.329-2.544-1.361-5.006-4.018-5.336
							c-0.389-0.05-0.788,0.38-0.972,0.672c-1.114,1.759-0.924,3.621-1.267,5.664c0.406-2.441-6.645-2.259-8-2.244
							c-5.747,0.06-15.994,0.523-20.4,4.832c-0.119,0.117-0.568,0.627-0.311,0.81c0.324,0.234,0.682,0.406,1.053,0.536
							c-13.482,3.07-26.281,10.832-34.711,21.708c-1.762,1.872-3.17,3.871-3.956,5.977c-3.751,7.01-5.311,15.409-4.854,23.205
							c0.297,5.069,2.403,19.053,8.328,20.462c0.844,0.2,1.649-1.106,1.877-1.721c0.186-0.503,0.321-1.034,0.437-1.578
							c0.688,1.635,1.581,3.173,2.691,4.566c1.88,4.105,4.649,7.82,7.771,10.449c0.159,0.132,2.71-10.036,2.976-13.977
							c0.671-9.908,5.058-19.54,10.801-25.839c14.827-19.704,46.021-23.671,67.381-13.581c11.254,5.318,22.974,12.91,24.431,26.401
							c0.355,3.278-1.27,19.803-1.723,23.117c-1.061,7.961,22.02-7.141,26.091-38.054C241.259,117.324,237.877,98.146,217.12,87.387
							z"/>
						<path style="fill:#DCDDDE;" d="M217.12,87.387c0.468-0.367,0.906-0.997,0.716-1.411c-3.542-7.635-20.547-10.832-27.689-10.66
							c-4.709,0.114-9.188,1.231-13.577,2.949c-2,0.781-3.15,1.512-3.822,2.53c1.141-1.729,2.038-3.712,3.047-5.537
							c0.138-0.247,0.191-0.546,0.019-0.778c-0.135-0.19-0.273-0.38-0.41-0.567c-0.109-0.15-0.412-0.036-0.529,0.01
							c-2.751,1.117-5.261,2.117-7.268,4.405c-0.235,0.269-0.64,0.794-1.088,1.414c-0.329-2.544-1.361-5.006-4.018-5.336
							c-0.389-0.05-0.788,0.38-0.972,0.672c-1.114,1.759-0.924,3.621-1.267,5.664c0.406-2.441-6.645-2.259-8-2.244
							c-5.747,0.06-15.994,0.523-20.4,4.832c-0.119,0.117-0.568,0.627-0.311,0.81c0.324,0.234,0.682,0.406,1.053,0.536
							c-13.482,3.07-26.281,10.832-34.711,21.708c-1.762,1.872-3.17,3.871-3.956,5.977c-3.751,7.01-5.311,15.409-4.854,23.205
							c0.297,5.069,2.403,19.053,8.328,20.462c0.844,0.2,1.649-1.106,1.877-1.721c0.186-0.503,0.321-1.034,0.437-1.578
							c0.688,1.635,1.581,3.173,2.691,4.566c1.88,4.105,4.649,7.82,7.771,10.449c0.159,0.132,2.71-10.036,2.976-13.977
							c0.671-9.908,5.058-19.54,10.801-25.839c14.827-19.704,46.021-23.671,67.381-13.581c11.254,5.318,22.974,12.91,24.431,26.401
							c0.355,3.278-1.27,19.803-1.723,23.117c-1.061,7.961,22.02-7.141,26.091-38.054C241.259,117.324,237.877,98.146,217.12,87.387
							z M235.359,131.387c-1.174,6.084-3.532,12.722-8.93,16.291c-0.414,0.273-1.023-0.088-1-0.578
							c0.232-5.436-0.273-10.629-1.573-15.689c-0.329,2.202-1.063,4.207-2.597,5.487c-0.297,0.25-0.853,0.281-1.044-0.138
							c-2.251-4.881-3.173-9.983-6.079-14.594c-2.583-4.105-5.266-8.078-8.744-11.479c-3.238-3.165-8.377-8.227-13.641-10.252
							c2.503,2.349,4.146,5.339,3.779,8.83c-0.055,0.516-0.523,0.81-1.004,0.573c-8.895-4.392-18.731-7.258-28.738-6.709
							c-9.563,0.528-18.279,4.095-27.177,7.308c-0.472,0.171-0.963-0.36-0.814-0.823c0.827-2.571,2.272-4.813,4.076-6.745
							c-1.524,0.667-3.02,1.414-4.453,2.335c-5.392,3.465-10.368,7.68-14.482,12.613c-4.362,5.233-8.366,10.704-11.506,16.77
							c-1.525,2.947-2.916,5.907-3.755,9.132c-0.738,2.822-1.388,5.656-2.463,8.379c-0.211,0.536-0.882,0.667-1.217,0.157
							c-3.012-4.563-2.264-11.215-1.71-16.377c0.653-6.055,3.481-11.555,6.111-16.99c-7.161,6.573-7.225,18.253-12.341,26.24
							c-0.263,0.409-0.901,0.453-1.15-0.003c-3.006-5.44-3.1-12.748-1.76-19.298c0.741-13.217,10.703-25.181,22.438-31.314
							c6.597-3.444,13.815-5.519,21.052-7.249c-0.374-0.297-0.754-0.596-1.146-0.893c-0.368-0.278-0.485-0.898,0.003-1.148
							c5.862-3.007,12.86-2.627,19.244-2.169c5.719,0.412,10.323,3.179,15.379,5.228c4.335-3.036,9.748-4.872,14.59-5.587
							c7.927-1.177,19.97-2.942,26.456,3.036c0.426,0.391,0.096,1.153-0.475,1.134c-2.051-0.065-4.01,0.24-5.893,0.789
							c12.109,3.103,23.052,12.725,28.217,23.613C236.051,117.67,236.7,124.423,235.359,131.387z"/>
					</g>
					<path style="opacity:0.9;fill:#FED1B4;" d="M168.016,165.129c0,0-15.857,0.659-15.426,7.146
						c0.431,6.489,21.653,5.543,24.987-0.68C180.915,165.374,168.697,164.955,168.016,165.129z"/>
					<path style="fill:#FED1B4;" d="M162.262,167.02c0,0-5.715,0.237-5.56,2.574c0.154,2.341,7.804,2,9.005-0.242
						C166.91,167.105,162.507,166.957,162.262,167.02z"/>
					<path style="fill:#D17E58;" d="M193.693,162.539c2.715-0.705,5.465-1.062,8.232-1.317c-5.196-0.999-12.401-0.39-15.738,3.915
						C188.413,163.763,191.291,163.162,193.693,162.539z"/>
					<path style="fill:#D17E58;" d="M135.104,162.597c-2.715-0.7-5.467-1.052-8.232-1.296c5.189-1.013,12.396-0.419,15.743,3.881
						C140.385,163.81,137.504,163.216,135.104,162.597z"/>
					<path style="opacity:0.9;fill:#FED1B4;" d="M205.024,162.802c0,0-11.997-0.653-19.153,8.018
						C185.871,170.82,194.531,165.814,205.024,162.802z"/>
					<path style="opacity:0.9;fill:#FED1B4;" d="M124.969,162.886c0,0,11.996-0.68,19.167,7.979
						C144.136,170.865,135.469,165.874,124.969,162.886z"/>
					<g>
						<g>
							<path style="fill:#FFFEEE;" d="M154.467,192.018c2.814-1.018,5.669-1.945,8.459-3.09c1.395-0.57,5.749-1.596,3.805-4.47
								c-0.694-1.026-1.501-1.827-2.458-2.486c-0.301-0.19-0.602-0.375-0.913-0.555c-0.146-0.081-0.281-0.169-0.455-0.26
								c-2.563-1.414-5.373-2.497-7.896-3.505c-8.172-3.28-15.41-7.005-24.417-6.047c-7.315,0.779-14.082,6.604-19.667,10.861
								c-4.326,3.293-8.19,5.035-13.804,4.777c-10.263-0.472-7.482-12.652,0.536-15.526c0.275-0.102,1.332-1.387,0.714-1.372
								c-0.041,0-0.083,0.005-0.124,0.008c-9.209,0.272-17.973,5.927-19.264,15.772c-1.935,14.776,12.741,26.267,25.731,29.677
								c14.702,3.858,29.119-11.894,40.003-19.16C147.775,194.603,151.092,193.242,154.467,192.018z"/>
							<path style="fill:#DCDDDE;" d="M97.12,187.244c-10.263-0.472-7.482-12.652,0.536-15.526c0.12-0.042,0.386-0.315,0.596-0.601
								c-5.277,1.366-11.886,6.234-9.811,12.222c1.487,4.301,5.37,7.253,9.997,6.755c7.859-0.841,14.715-6.513,20.991-10.868
								c7.349-5.108,15.328-7.25,24.23-4.918c5.578,1.463,10.787,3.743,16.177,5.753c1.191,0.442,2.405,0.895,3.593,1.401
								c-0.021-0.019-0.045-0.032-0.07-0.044c-0.146-0.081-0.281-0.169-0.455-0.26c-2.563-1.414-5.373-2.497-7.896-3.505
								c-8.172-3.28-15.41-7.005-24.417-6.047c-7.315,0.779-14.082,6.604-19.667,10.861
								C106.598,185.76,102.733,187.502,97.12,187.244z"/>
							<path style="fill:#DCDDDE;" d="M140.785,190.037c-4.314,2.296-8.477,5.196-12.031,8.559
								c-2.181,2.062-8.418,4.579-8.059,4.058c1.951-2.837,3.789-5.909,4.389-9.316c-3.02,2.647-5.489,5.987-8.886,8.145
								c-3.502,2.223-7.422,3.168-11.567,2.845c-7.471-0.578-13.875-4.785-18.546-10.517c-6.738-8.267-2.651-17.86,5.188-22.163
								c-6.288,2.215-11.335,7.195-12.291,14.479c-1.935,14.776,12.741,26.267,25.731,29.677
								c14.702,3.858,29.119-11.894,40.003-19.16c3.059-2.041,6.375-3.402,9.75-4.626c2.814-1.018,5.669-1.945,8.459-3.09
								c1.131-0.466,4.211-1.226,4.292-3.033C158.33,183.464,148.895,185.719,140.785,190.037z"/>
						</g>
						<g>
							<path style="fill:#FFFEEE;" d="M180.667,191.992c-2.816-1.015-5.671-1.935-8.465-3.072c-1.393-0.57-5.75-1.583-3.813-4.462
								c0.692-1.031,1.497-1.833,2.454-2.494c0.298-0.19,0.602-0.376,0.907-0.555c0.146-0.083,0.284-0.171,0.457-0.263
								c2.563-1.421,5.372-2.504,7.89-3.522c8.164-3.294,15.396-7.031,24.407-6.091c7.316,0.76,14.095,6.573,19.686,10.816
								c4.333,3.288,8.203,5.021,13.815,4.753c10.26-0.492,7.453-12.667-0.565-15.525c-0.278-0.102-1.338-1.385-0.72-1.372
								c0.041,0,0.084,0.007,0.123,0.005c9.209,0.258,17.986,5.894,19.295,15.739c1.964,14.774-12.687,26.29-25.67,29.727
								c-14.693,3.892-29.143-11.835-40.041-19.08C187.365,194.564,184.049,193.208,180.667,191.992z"/>
							<path style="fill:#DCDDDE;" d="M238.006,187.103c10.26-0.492,7.453-12.667-0.565-15.525
								c-0.122-0.044-0.388-0.312-0.602-0.601c5.281,1.358,11.901,6.214,9.838,12.204c-1.479,4.3-5.355,7.263-9.981,6.776
								c-7.863-0.828-14.732-6.488-21.013-10.83c-7.363-5.089-15.344-7.216-24.242-4.865c-5.578,1.474-10.781,3.764-16.169,5.784
								c-1.188,0.448-2.402,0.901-3.591,1.407c0.025-0.013,0.048-0.032,0.07-0.042c0.146-0.083,0.284-0.171,0.457-0.263
								c2.563-1.421,5.372-2.504,7.89-3.522c8.164-3.294,15.396-7.031,24.407-6.091c7.316,0.76,14.095,6.573,19.686,10.816
								C228.523,185.638,232.393,187.372,238.006,187.103z"/>
							<path style="fill:#DCDDDE;" d="M194.346,189.982c4.318,2.288,8.486,5.18,12.048,8.536c2.186,2.059,8.427,4.563,8.066,4.04
								c-1.955-2.83-3.799-5.899-4.405-9.307c3.023,2.643,5.501,5.977,8.902,8.127c3.506,2.218,7.429,3.155,11.572,2.824
								c7.47-0.594,13.864-4.813,18.525-10.558c6.724-8.278,2.615-17.864-5.233-22.151c6.292,2.202,11.349,7.171,12.318,14.455
								c1.964,14.774-12.687,26.29-25.67,29.727c-14.693,3.892-29.143-11.835-40.041-19.08c-3.063-2.032-6.379-3.389-9.761-4.604
								c-2.816-1.015-5.671-1.935-8.465-3.072c-1.13-0.463-4.212-1.218-4.3-3.025C176.788,183.443,186.229,185.679,194.346,189.982z
								"/>
						</g>
					</g>
				</g>
			</g>
			<path style="fill:#DCDDDE;" d="M143.143,205.325c0,0,30.081,10.213,43.448-6.362
				C186.591,198.963,172.328,211.951,143.143,205.325z"/>
		</g>
		<g>
			<g>
				<g style="opacity:0.4;">
					<path style="fill:#FFFFFF;" d="M148.134,172.652c-2.071,6.1-8.692,9.367-14.793,7.295c-6.098-2.073-9.363-8.692-7.293-14.792
						c2.07-6.102,8.692-9.366,14.792-7.294C146.938,159.929,150.203,166.554,148.134,172.652z"/>
					<path style="fill:#636567;" d="M137.102,181.048c-1.313,0-2.633-0.216-3.914-0.652c-6.335-2.153-9.74-9.059-7.59-15.394
						c1.042-3.071,3.217-5.552,6.125-6.985c2.907-1.434,6.199-1.649,9.271-0.606c3.068,1.041,5.549,3.215,6.983,6.124
						c1.433,2.909,1.648,6.201,0.607,9.271l0,0c-1.043,3.07-3.218,5.551-6.125,6.984
						C140.764,180.626,138.938,181.048,137.102,181.048z M137.078,157.71c-1.691,0-3.373,0.389-4.936,1.159
						c-2.68,1.321-4.685,3.608-5.645,6.439c-1.982,5.839,1.156,12.205,6.996,14.189c2.828,0.961,5.862,0.763,8.545-0.559
						c2.679-1.322,4.685-3.608,5.645-6.438l0,0c0.961-2.83,0.762-5.865-0.561-8.545c-1.32-2.681-3.606-4.685-6.436-5.644
						C139.507,157.91,138.289,157.71,137.078,157.71z"/>
				</g>
				<g>
					<path style="opacity:0.4;fill:#FFFFFF;" d="M138.459,162.537c1.777-1.073,3.578-2.104,5.371-3.15
						c-0.601-0.424-1.25-0.799-1.943-1.111c-5.479,3.561-11.034,7.013-16.449,10.665c0.001,0.753,0.086,1.492,0.231,2.218
						C129.892,168.222,134.07,165.191,138.459,162.537z"/>
					<path style="opacity:0.4;fill:#FFFFFF;" d="M128.931,177.201c0.67,0.658,1.419,1.249,2.25,1.739
						c3.512-2.611,15.221-10.108,17.495-11.353c-0.065-0.56-0.182-1.106-0.326-1.647
						C141.845,169.636,135.245,173.187,128.931,177.201z"/>
				</g>
			</g>
			<g>
				<g>
					<g style="opacity:0.4;">
						<path style="fill:#FFFFFF;" d="M205.47,173.582c-2.071,6.1-8.694,9.366-14.791,7.294c-6.101-2.069-9.366-8.692-7.296-14.791
							c2.069-6.1,8.693-9.366,14.792-7.294C204.271,160.86,207.539,167.482,205.47,173.582z"/>
						<path style="fill:#636567;" d="M194.438,181.977c-1.314,0-2.632-0.215-3.912-0.651c-3.069-1.042-5.551-3.216-6.984-6.124
							c-1.435-2.907-1.65-6.199-0.607-9.27c1.041-3.07,3.216-5.551,6.123-6.985c2.908-1.434,6.201-1.649,9.271-0.606
							c6.337,2.15,9.743,9.056,7.593,15.394l0,0c-1.043,3.071-3.219,5.551-6.126,6.985
							C198.099,181.556,196.273,181.977,194.438,181.977z M194.414,158.641c-1.691,0-3.375,0.389-4.937,1.159
							c-2.681,1.322-4.685,3.608-5.645,6.438c-0.961,2.83-0.762,5.864,0.56,8.544c1.322,2.68,3.608,4.685,6.438,5.644
							c2.829,0.962,5.862,0.763,8.542-0.559c2.681-1.322,4.687-3.608,5.646-6.438c1.982-5.842-1.156-12.207-6.999-14.189
							C196.841,158.839,195.625,158.641,194.414,158.641z"/>
					</g>
					<g>
						<path style="opacity:0.4;fill:#FFFFFF;" d="M195.794,163.469c1.774-1.072,3.579-2.104,5.373-3.15
							c-0.605-0.427-1.252-0.802-1.944-1.112c-5.48,3.559-11.036,7.014-16.452,10.666c0.003,0.75,0.087,1.489,0.231,2.215
							C187.227,169.151,191.404,166.121,195.794,163.469z"/>
						<path style="opacity:0.4;fill:#FFFFFF;" d="M186.265,178.13c0.67,0.661,1.419,1.249,2.251,1.742
							c3.512-2.614,15.222-10.108,17.494-11.355c-0.065-0.558-0.182-1.104-0.324-1.646
							C199.179,170.568,192.58,174.118,186.265,178.13z"/>
					</g>
				</g>
				<path style="opacity:0.4;fill:#636567;" d="M206.01,168.991c-0.159,0-0.314-0.08-0.404-0.225
					c-0.138-0.223-0.069-0.516,0.153-0.654l24.155-14.991c0.223-0.137,0.516-0.07,0.654,0.153c0.139,0.223,0.07,0.516-0.152,0.654
					L206.26,168.92C206.182,168.968,206.096,168.991,206.01,168.991z"/>
			</g>
			<path style="opacity:0.4;fill:#636567;" d="M125.209,170.861c-0.09,0-0.18-0.025-0.26-0.077L99.4,154.133
				c-0.22-0.143-0.281-0.436-0.139-0.657c0.143-0.219,0.438-0.279,0.658-0.139l25.549,16.65c0.219,0.144,0.28,0.438,0.138,0.658
				C125.516,170.784,125.363,170.861,125.209,170.861z"/>
		</g>
	</g>
</g>
</svg>
